<svg width="15" height="16" viewBox="0 0 15 16" fill="none" xmlns="http://www.w3.org/2000/svg">
<path fill-rule="evenodd" clip-rule="evenodd" d="M11.4258 0.5C13.5938 0.5 15 1.90625 15 4.07422V11.9258C15 14.0938 13.5938 15.5 11.4258 15.5H3.57422C1.40625 15.5 0 14.0938 0 11.9258V4.07422C0 1.90625 1.40625 0.5 3.57422 0.5H11.4258Z" fill="#2E3240"/>
<path fill-rule="evenodd" clip-rule="evenodd" d="M8.91289 3.92499C9.2908 3.51421 9.49893 2.95009 9.46607 2.375C8.95123 2.375 8.35423 2.67624 7.97633 3.11987C7.68057 3.48682 7.3629 4.06191 7.47792 4.637C8.00918 4.70271 8.58427 4.36863 8.91289 3.92499ZM9.41677 4.76296C8.61713 4.76296 7.9106 5.2066 7.53269 5.2066C7.13834 5.2066 6.56327 4.74106 5.91698 4.76296C5.07352 4.7794 4.30127 5.2778 3.86859 6.01171C3.56188 6.53751 3.44138 7.15641 3.45234 7.78626C3.46877 8.97476 3.9343 10.2126 4.482 11.0013C4.90374 11.6037 5.38023 12.25 6.0539 12.25C6.66184 12.25 6.8864 11.8447 7.68057 11.8447C8.41995 11.8447 8.64999 12.25 9.2908 12.25C9.96447 12.25 10.4081 11.6366 10.8079 11.0286C11.3118 10.3221 11.4816 9.64844 11.5035 9.62105C11.4816 9.62105 10.2109 9.10621 10.1616 7.63837C10.1616 6.35129 11.2077 5.77073 11.2516 5.74335C10.682 4.86702 9.76182 4.76296 9.41677 4.76296Z" fill="white"/>
</svg>
