<svg width="18" height="17" viewBox="0 0 18 17" fill="none" xmlns="http://www.w3.org/2000/svg">
<g clip-path="url(#clip0_4_201)">
<path d="M16.875 2.79492H12.375V1.70508C12.375 1.40039 12.3018 1.11914 12.1553 0.861328C12.0088 0.603516 11.8037 0.398438 11.54 0.246094C11.2764 0.09375 10.9922 0.0175781 10.6875 0.0175781H7.3125C6.84375 0.0175781 6.44531 0.18457 6.11719 0.518555C5.78906 0.852539 5.625 1.24805 5.625 1.70508V2.79492H1.125C0.820312 2.79492 0.556641 2.90625 0.333984 3.12891C0.111328 3.35156 0 3.61523 0 3.91992V15.7324C0 16.0371 0.111328 16.3008 0.333984 16.5234C0.556641 16.7461 0.820312 16.8574 1.125 16.8574H16.875C17.1797 16.8574 17.4434 16.7461 17.666 16.5234C17.8887 16.3008 18 16.0371 18 15.7324V3.91992C18 3.7207 17.9502 3.53613 17.8506 3.36621C17.751 3.19629 17.6133 3.05859 17.4375 2.95313C17.2617 2.84766 17.0742 2.79492 16.875 2.79492ZM6.75 1.70508C6.75 1.55273 6.80566 1.4209 6.91699 1.30957C7.02832 1.19824 7.16016 1.14258 7.3125 1.14258H10.6875C10.8516 1.14258 10.9863 1.19824 11.0918 1.30957C11.1973 1.4209 11.25 1.55273 11.25 1.70508V2.79492H6.75V1.70508ZM1.125 3.91992H16.875V7.875H10.6875V7.29492C10.6875 7.0957 10.6348 6.9082 10.5293 6.73242C10.4238 6.55664 10.2861 6.41895 10.1162 6.31934C9.94629 6.21973 9.76172 6.16992 9.5625 6.16992H8.4375C8.12109 6.16992 7.85449 6.28125 7.6377 6.50391C7.4209 6.72656 7.3125 6.99024 7.3125 7.29492V7.875H1.125V3.91992ZM9.5625 10.125H8.4375V7.29492H9.5625V10.125ZM1.125 15.7324V9H7.3125V10.125C7.3125 10.4414 7.4209 10.708 7.6377 10.9248C7.85449 11.1416 8.12109 11.25 8.4375 11.25H9.5625C9.76172 11.25 9.94629 11.2002 10.1162 11.1006C10.2861 11.001 10.4238 10.8633 10.5293 10.6875C10.6348 10.5117 10.6875 10.3242 10.6875 10.125V9H16.875V15.7324H1.125Z" fill="#455154"/>
</g>
<defs>
<clipPath id="clip0_4_201">
<rect width="18" height="16.875" fill="white"/>
</clipPath>
</defs>
</svg>
