<svg width="23" height="15" viewBox="0 0 23 15" fill="none" xmlns="http://www.w3.org/2000/svg">
<path d="M20.9049 14.3192H2.09696C1.34228 14.3192 0.725948 13.7029 0.725948 12.9482V2.05192C0.725948 1.29724 1.34228 0.680908 2.09696 0.680908H20.9049C21.6595 0.680908 22.2759 1.29724 22.2759 2.05192V12.9482C22.2759 13.7029 21.6595 14.3192 20.9049 14.3192Z" fill="#FFC107"/>
<path d="M0.724152 2.9863H22.2777V5.87388H0.724152V2.9863Z" fill="#424242"/>
<path d="M20.5203 9.32208H2.49228C2.31618 9.32208 2.17064 9.17833 2.17064 9.00044V7.48927C2.17064 7.31317 2.31439 7.16763 2.49228 7.16763H20.5203C20.6964 7.16763 20.842 7.31138 20.842 7.48927V9.00044C20.8402 9.17653 20.6964 9.32208 20.5203 9.32208Z" fill="white"/>
</svg>
