<svg width="21" height="21" viewBox="0 0 21 21" fill="none" xmlns="http://www.w3.org/2000/svg">
<path d="M1.3125 3.9375C1.3125 3.5894 1.45078 3.25556 1.69692 3.00942C1.94306 2.76328 2.2769 2.625 2.625 2.625H18.375C18.7231 2.625 19.0569 2.76328 19.3031 3.00942C19.5492 3.25556 19.6875 3.5894 19.6875 3.9375H1.3125ZM10.5 14.4375C11.1962 14.4375 11.8639 14.1609 12.3562 13.6687C12.8484 13.1764 13.125 12.5087 13.125 11.8125C13.125 11.1163 12.8484 10.4486 12.3562 9.95634C11.8639 9.46406 11.1962 9.1875 10.5 9.1875C9.80381 9.1875 9.13613 9.46406 8.64384 9.95634C8.15156 10.4486 7.875 11.1163 7.875 11.8125C7.875 12.5087 8.15156 13.1764 8.64384 13.6687C9.13613 14.1609 9.80381 14.4375 10.5 14.4375Z" fill="#34A853"/>
<path d="M0 6.5625C0 6.2144 0.138281 5.88056 0.384422 5.63442C0.630564 5.38828 0.964403 5.25 1.3125 5.25H19.6875C20.0356 5.25 20.3694 5.38828 20.6156 5.63442C20.8617 5.88056 21 6.2144 21 6.5625V17.0625C21 17.4106 20.8617 17.7444 20.6156 17.9906C20.3694 18.2367 20.0356 18.375 19.6875 18.375H1.3125C0.964403 18.375 0.630564 18.2367 0.384422 17.9906C0.138281 17.7444 0 17.4106 0 17.0625V6.5625ZM3.9375 6.5625C3.9375 7.25869 3.66094 7.92637 3.16866 8.41866C2.67637 8.91094 2.00869 9.1875 1.3125 9.1875V14.4375C2.00869 14.4375 2.67637 14.7141 3.16866 15.2063C3.66094 15.6986 3.9375 16.3663 3.9375 17.0625H17.0625C17.0625 16.3663 17.3391 15.6986 17.8313 15.2063C18.3236 14.7141 18.9913 14.4375 19.6875 14.4375V9.1875C18.9913 9.1875 18.3236 8.91094 17.8313 8.41866C17.3391 7.92637 17.0625 7.25869 17.0625 6.5625H3.9375Z" fill="#34A853"/>
</svg>
