<svg width="23" height="23" viewBox="0 0 23 23" fill="none" xmlns="http://www.w3.org/2000/svg">
<path d="M20.9049 18.3192H2.09697C1.34228 18.3192 0.725952 17.7029 0.725952 16.9482V6.05192C0.725952 5.29724 1.34228 4.68091 2.09697 4.68091H20.9049C21.6595 4.68091 22.2759 5.29724 22.2759 6.05192V16.9482C22.2759 17.7029 21.6595 18.3192 20.9049 18.3192Z" fill="#FFC107"/>
<path d="M0.724152 6.98633H22.2777V9.87391H0.724152V6.98633Z" fill="#424242"/>
<path d="M20.5203 13.3219H2.49226C2.31617 13.3219 2.17062 13.1782 2.17062 13.0003V11.4891C2.17062 11.313 2.31437 11.1675 2.49226 11.1675H20.5203C20.6964 11.1675 20.842 11.3112 20.842 11.4891V13.0003C20.8402 13.1764 20.6964 13.3219 20.5203 13.3219Z" fill="white"/>
</svg>
