<svg width="29" height="29" viewBox="0 0 29 29" fill="none" xmlns="http://www.w3.org/2000/svg">
<path d="M14.5 19.3334C17.1694 19.3334 19.3333 17.1695 19.3333 14.5001C19.3333 11.8307 17.1694 9.66675 14.5 9.66675C11.8306 9.66675 9.66667 11.8307 9.66667 14.5001C9.66667 17.1695 11.8306 19.3334 14.5 19.3334Z" fill="black"/>
<path d="M15.7084 4.9163V2.41626H13.2917V4.9163C11.1654 5.18779 9.18937 6.15747 7.67364 7.6732C6.15791 9.18893 5.18823 11.165 4.91674 13.2913H2.4167V15.7079H4.91674C5.18784 17.8344 6.15738 19.8106 7.67319 21.3264C9.18899 22.8422 11.1652 23.8118 13.2917 24.0829V26.5829H15.7084V24.0829C17.8349 23.812 19.8113 22.8425 21.3271 21.3267C22.8429 19.8108 23.8124 17.8345 24.0833 15.7079H26.5834V13.2913H24.0833C23.8122 11.1648 22.8427 9.18855 21.3269 7.67275C19.8111 6.15694 17.8348 5.18739 15.7084 4.9163ZM14.5 21.7496C10.5017 21.7496 7.25004 18.498 7.25004 14.4996C7.25004 10.5012 10.5017 7.24959 14.5 7.24959C18.4984 7.24959 21.75 10.5012 21.75 14.4996C21.75 18.498 18.4984 21.7496 14.5 21.7496Z" fill="black"/>
</svg>
