<svg width="27" height="27" viewBox="0 0 27 27" fill="none" xmlns="http://www.w3.org/2000/svg">
<path d="M11.25 4.5C10.0565 4.5 8.91193 4.97411 8.06802 5.81802C7.22411 6.66193 6.75 7.80653 6.75 9C6.75 10.1935 7.22411 11.3381 8.06802 12.182C8.91193 13.0259 10.0565 13.5 11.25 13.5C12.4435 13.5 13.5881 13.0259 14.432 12.182C15.2759 11.3381 15.75 10.1935 15.75 9C15.75 7.80653 15.2759 6.66193 14.432 5.81802C13.5881 4.97411 12.4435 4.5 11.25 4.5ZM11.25 6.75C11.8467 6.75 12.419 6.98705 12.841 7.40901C13.2629 7.83097 13.5 8.40326 13.5 9C13.5 9.59674 13.2629 10.169 12.841 10.591C12.419 11.0129 11.8467 11.25 11.25 11.25C10.6533 11.25 10.081 11.0129 9.65901 10.591C9.23705 10.169 9 9.59674 9 9C9 8.40326 9.23705 7.83097 9.65901 7.40901C10.081 6.98705 10.6533 6.75 11.25 6.75ZM11.25 14.625C8.24625 14.625 2.25 16.1213 2.25 19.125V22.5H12.9375C12.6544 21.8183 12.4761 21.0976 12.4087 20.3625H4.3875V19.125C4.3875 18.405 7.90875 16.7625 11.25 16.7625C11.8125 16.7625 12.375 16.8187 12.9375 16.9087C13.2262 16.1984 13.6248 15.5378 14.1188 14.9513C13.0613 14.7375 12.0487 14.625 11.25 14.625ZM19.6875 14.625C16.875 14.625 14.625 16.875 14.625 19.6875C14.625 22.5 16.875 24.75 19.6875 24.75C22.5 24.75 24.75 22.5 24.75 19.6875C24.75 16.875 22.5 14.625 19.6875 14.625ZM19.6875 16.3125C21.555 16.3125 23.0625 17.82 23.0625 19.6875C23.0625 20.3175 22.8937 20.9025 22.59 21.375L18 16.785C18.4725 16.4812 19.0575 16.3125 19.6875 16.3125ZM16.785 18L21.375 22.59C20.9025 22.8937 20.3175 23.0625 19.6875 23.0625C17.82 23.0625 16.3125 21.555 16.3125 19.6875C16.3125 19.0575 16.4812 18.4725 16.785 18Z" fill="black" fill-opacity="0.5"/>
</svg>
