<svg width="24" height="24" viewBox="0 0 24 24" fill="none" xmlns="http://www.w3.org/2000/svg">
<path d="M11.39 10.3899L7.5 14.2769L3.61 10.3899C2.84107 9.62059 2.3175 8.64058 2.10549 7.57376C1.89349 6.50693 2.00255 5.4012 2.41891 4.39635C2.83527 3.39151 3.54022 2.53268 4.44463 1.92845C5.34905 1.32421 6.41232 1.00171 7.5 1.00171C8.58769 1.00171 9.65096 1.32421 10.5554 1.92845C11.4598 2.53268 12.1647 3.39151 12.5811 4.39635C12.9975 5.4012 13.1065 6.50693 12.8945 7.57376C12.6825 8.64058 12.1589 9.62059 11.39 10.3899ZM7.5 8.49988C8.03044 8.49988 8.53914 8.28917 8.91422 7.9141C9.28929 7.53902 9.5 7.03032 9.5 6.49988C9.5 5.96945 9.28929 5.46074 8.91422 5.08567C8.53914 4.7106 8.03044 4.49988 7.5 4.49988C6.96957 4.49988 6.46086 4.7106 6.08579 5.08567C5.71072 5.46074 5.5 5.96945 5.5 6.49988C5.5 7.03032 5.71072 7.53902 6.08579 7.9141C6.46086 8.28917 6.96957 8.49988 7.5 8.49988ZM20.39 19.3899L16.5 23.2779L12.61 19.3889C11.8411 18.6196 11.3175 17.6396 11.1055 16.5728C10.8935 15.5059 11.0026 14.4002 11.4189 13.3954C11.8353 12.3905 12.5402 11.5317 13.4446 10.9274C14.349 10.3232 15.4123 10.0007 16.5 10.0007C17.5877 10.0007 18.651 10.3232 19.5554 10.9274C20.4598 11.5317 21.1647 12.3905 21.5811 13.3954C21.9974 14.4002 22.1065 15.5059 21.8945 16.5728C21.6825 17.6396 21.1589 18.6196 20.39 19.3889V19.3899ZM16.5 17.4999C17.0304 17.4999 17.5391 17.2892 17.9142 16.9141C18.2893 16.539 18.5 16.0303 18.5 15.4999C18.5 14.9695 18.2893 14.4607 17.9142 14.0857C17.5391 13.7106 17.0304 13.4999 16.5 13.4999C15.9696 13.4999 15.4609 13.7106 15.0858 14.0857C14.7107 14.4607 14.5 14.9695 14.5 15.4999C14.5 16.0303 14.7107 16.539 15.0858 16.9141C15.4609 17.2892 15.9696 17.4999 16.5 17.4999Z" fill="black" fill-opacity="0.5"/>
</svg>
