<svg width="34" height="34" viewBox="0 0 34 34" fill="none" xmlns="http://www.w3.org/2000/svg">
<path d="M2.83617 17.0028C2.83696 20.3763 4.041 23.639 6.23186 26.2043C8.42272 28.7696 11.4567 30.4694 14.7886 30.9981V21.097H11.1945V17.0028H14.7928V13.8861C14.7134 13.1567 14.7955 12.4187 15.0334 11.7245C15.2713 11.0304 15.6591 10.3972 16.1693 9.86979C16.6795 9.34242 17.2996 8.93386 17.9855 8.67312C18.6713 8.41238 19.4062 8.30587 20.1379 8.36114C21.2004 8.37814 22.2629 8.47306 23.3112 8.64447V12.1281H21.5206C21.2162 12.0882 20.9068 12.1172 20.6152 12.213C20.3236 12.3088 20.0573 12.4689 19.8358 12.6815C19.6144 12.8941 19.4436 13.1537 19.336 13.4412C19.2284 13.7286 19.1868 14.0366 19.2142 14.3423V17.0028H23.1398L22.5122 21.0984H19.2142V30.9981C21.8884 30.5754 24.3854 29.3954 26.4097 27.5977C28.434 25.8 29.9008 23.4599 30.6365 20.8545C31.3721 18.249 31.3458 15.4873 30.5606 12.8964C29.7754 10.3054 28.2642 7.9937 26.206 6.23492C24.1478 4.47615 21.6287 3.34397 18.947 2.97243C16.2653 2.60089 13.5333 3.00554 11.0744 4.13848C8.61558 5.27143 6.53284 7.08521 5.07281 9.3651C3.61277 11.645 2.8366 14.2955 2.83617 17.0028V17.0028Z" fill="#517FC9"/>
</svg>
