<svg width="30" height="30" viewBox="0 0 30 30" fill="none" xmlns="http://www.w3.org/2000/svg">
<path d="M25.7812 9.08203H21.457C21.8555 8.45508 22.0898 7.71094 22.0898 6.91406C22.0898 4.68457 20.2764 2.87109 18.0469 2.87109C16.834 2.87109 15.7412 3.41016 15 4.25977C14.2588 3.41016 13.166 2.87109 11.9531 2.87109C9.72363 2.87109 7.91016 4.68457 7.91016 6.91406C7.91016 7.71094 8.1416 8.45508 8.54297 9.08203H4.21875C3.7002 9.08203 3.28125 9.50098 3.28125 10.0195V15.8789C3.28125 16.0078 3.38672 16.1133 3.51562 16.1133H4.6875V26.1914C4.6875 26.71 5.10645 27.1289 5.625 27.1289H24.375C24.8936 27.1289 25.3125 26.71 25.3125 26.1914V16.1133H26.4844C26.6133 16.1133 26.7188 16.0078 26.7188 15.8789V10.0195C26.7188 9.50098 26.2998 9.08203 25.7812 9.08203ZM15.9961 6.91406C15.9961 5.7832 16.916 4.86328 18.0469 4.86328C19.1777 4.86328 20.0977 5.7832 20.0977 6.91406C20.0977 8.04492 19.1777 8.96484 18.0469 8.96484H15.9961V6.91406ZM11.9531 4.86328C13.084 4.86328 14.0039 5.7832 14.0039 6.91406V8.96484H11.9531C10.8223 8.96484 9.90234 8.04492 9.90234 6.91406C9.90234 5.7832 10.8223 4.86328 11.9531 4.86328ZM5.27344 14.1211V11.0742H14.0039V14.1211H5.27344ZM6.67969 16.1133H14.0039V25.1367H6.67969V16.1133ZM23.3203 25.1367H15.9961V16.1133H23.3203V25.1367ZM24.7266 14.1211H15.9961V11.0742H24.7266V14.1211Z" fill="white"/>
</svg>
