<svg width="15" height="16" viewBox="0 0 15 16" fill="none" xmlns="http://www.w3.org/2000/svg">
<path d="M14.8541 6.53113H14.25V6.5H7.5V9.5H11.7386C11.1203 11.2464 9.45862 12.5 7.5 12.5C5.01487 12.5 3 10.4851 3 8C3 5.51487 5.01487 3.5 7.5 3.5C8.64713 3.5 9.69075 3.93275 10.4854 4.63962L12.6068 2.51825C11.2673 1.26987 9.4755 0.5 7.5 0.5C3.35812 0.5 0 3.85812 0 8C0 12.1419 3.35812 15.5 7.5 15.5C11.6419 15.5 15 12.1419 15 8C15 7.49713 14.9482 7.00625 14.8541 6.53113Z" fill="#FFC107"/>
<path d="M0.864746 4.50912L3.32887 6.31625C3.99562 4.6655 5.61037 3.5 7.5 3.5C8.64712 3.5 9.69075 3.93275 10.4854 4.63962L12.6067 2.51825C11.2672 1.26987 9.4755 0.5 7.5 0.5C4.61925 0.5 2.121 2.12637 0.864746 4.50912Z" fill="#FF3D00"/>
<path d="M7.50012 15.5C9.43737 15.5 11.1976 14.7586 12.5285 13.553L10.2072 11.5888C9.42895 12.1807 8.47791 12.5008 7.50012 12.5C5.54937 12.5 3.89299 11.2561 3.26899 9.52026L0.823242 11.4046C2.06449 13.8335 4.58524 15.5 7.50012 15.5Z" fill="#4CAF50"/>
<path d="M14.8541 6.53113H14.25V6.5H7.5V9.5H11.7386C11.4428 10.3312 10.91 11.0574 10.206 11.5891L10.2071 11.5884L12.5284 13.5526C12.3641 13.7019 15 11.75 15 8C15 7.49713 14.9482 7.00625 14.8541 6.53113Z" fill="#F7C300"/>
</svg>
