<svg width="24" height="24" viewBox="0 0 24 24" fill="none" xmlns="http://www.w3.org/2000/svg">
<path d="M20 11C20 8.87827 19.1571 6.84344 17.6569 5.34315C16.1566 3.84285 14.1217 3 12 3C9.87827 3 7.84344 3.84285 6.34315 5.34315C4.84285 6.84344 4 8.87827 4 11" stroke="black" stroke-opacity="0.5" stroke-width="1.5" stroke-linecap="round" stroke-linejoin="round"/>
<path d="M20 18.0002V18.5002C20 19.0307 19.7893 19.5394 19.4142 19.9145C19.0391 20.2895 18.5304 20.5002 18 20.5002H14.5M2 15.4382V13.5622C2.00007 13.1163 2.1492 12.6831 2.4237 12.3316C2.69821 11.9801 3.08232 11.7304 3.515 11.6222L5.255 11.1862C5.34342 11.1642 5.43569 11.1626 5.52481 11.1816C5.61393 11.2005 5.69757 11.2395 5.76937 11.2956C5.84118 11.3517 5.89926 11.4234 5.93922 11.5053C5.97918 11.5872 5.99997 11.6771 6 11.7682V17.2312C6.00016 17.3226 5.97947 17.4127 5.93952 17.4948C5.89957 17.5769 5.84141 17.6488 5.76946 17.705C5.69752 17.7613 5.61369 17.8003 5.52436 17.8192C5.43503 17.8382 5.34257 17.8365 5.254 17.8142L3.514 17.3792C3.08151 17.2709 2.69762 17.0211 2.42331 16.6697C2.149 16.3182 2.00001 15.8851 2 15.4392V15.4382ZM22 15.4382V13.5622C21.9999 13.1163 21.8508 12.6831 21.5763 12.3316C21.3018 11.9801 20.9177 11.7304 20.485 11.6222L18.745 11.1862C18.6566 11.1642 18.5643 11.1626 18.4752 11.1816C18.3861 11.2005 18.3024 11.2395 18.2306 11.2956C18.1588 11.3517 18.1007 11.4234 18.0608 11.5053C18.0208 11.5872 18 11.6771 18 11.7682V17.2312C17.9999 17.3224 18.0206 17.4125 18.0604 17.4945C18.1003 17.5765 18.1584 17.6483 18.2302 17.7045C18.3021 17.7607 18.3857 17.7998 18.4749 17.8188C18.5641 17.8379 18.6565 17.8363 18.745 17.8142L20.485 17.3792C20.9177 17.2711 21.3018 17.0214 21.5763 16.6699C21.8508 16.3184 21.9999 15.8852 22 15.4392V15.4382Z" stroke="black" stroke-opacity="0.5" stroke-width="1.5"/>
<path d="M13.5 22H10.5C10.1022 22 9.72064 21.842 9.43934 21.5607C9.15804 21.2794 9 20.8978 9 20.5C9 20.1022 9.15804 19.7206 9.43934 19.4393C9.72064 19.158 10.1022 19 10.5 19H13.5C13.8978 19 14.2794 19.158 14.5607 19.4393C14.842 19.7206 15 20.1022 15 20.5C15 20.8978 14.842 21.2794 14.5607 21.5607C14.2794 21.842 13.8978 22 13.5 22Z" stroke="black" stroke-opacity="0.5" stroke-width="1.5"/>
</svg>
