<svg width="22" height="22" viewBox="0 0 22 22" fill="none" xmlns="http://www.w3.org/2000/svg">
<g clip-path="url(#clip0_7_869)">
<path d="M1.83334 5.50016C1.83334 4.5277 2.21964 3.59507 2.90728 2.90744C3.59491 2.2198 4.52754 1.8335 5.5 1.8335H16.5C17.4725 1.8335 18.4051 2.2198 19.0927 2.90744C19.7804 3.59507 20.1667 4.5277 20.1667 5.50016V16.5002C20.1667 17.4726 19.7804 18.4053 19.0927 19.0929C18.4051 19.7805 17.4725 20.1668 16.5 20.1668H5.5C4.52754 20.1668 3.59491 19.7805 2.90728 19.0929C2.21964 18.4053 1.83334 17.4726 1.83334 16.5002V5.50016Z" stroke="#C0CBE2" stroke-width="2" stroke-linecap="round" stroke-linejoin="round"/>
<path d="M7.79167 10.0833C9.05732 10.0833 10.0833 9.05732 10.0833 7.79167C10.0833 6.52601 9.05732 5.5 7.79167 5.5C6.52601 5.5 5.5 6.52601 5.5 7.79167C5.5 9.05732 6.52601 10.0833 7.79167 10.0833Z" stroke="#C0CBE2" stroke-width="2" stroke-linecap="round" stroke-linejoin="round"/>
<path d="M13.3155 11.5692L5.5 20.1666H16.6219C17.562 20.1666 18.4637 19.7931 19.1284 19.1284C19.7932 18.4636 20.1667 17.562 20.1667 16.6219V16.4999C20.1667 16.0728 20.0063 15.9087 19.7175 15.5924L16.0233 11.5637C15.8512 11.3759 15.6417 11.226 15.4084 11.1237C15.1751 11.0213 14.923 10.9687 14.6682 10.9692C14.4134 10.9698 14.1615 11.0234 13.9286 11.1267C13.6957 11.23 13.4869 11.3807 13.3155 11.5692V11.5692Z" stroke="#C0CBE2" stroke-width="2" stroke-linecap="round" stroke-linejoin="round"/>
</g>
<defs>
<clipPath id="clip0_7_869">
<rect width="22" height="22" fill="white"/>
</clipPath>
</defs>
</svg>
