<svg width="292" height="137" viewBox="0 0 292 137" fill="none" xmlns="http://www.w3.org/2000/svg">
<path fill-rule="evenodd" clip-rule="evenodd" d="M73.7785 135.407H26.1743C20.5576 135.407 15.9637 130.816 15.9637 125.204V11.2022C15.9637 5.59097 20.5576 1 26.1743 1H73.7785C79.3943 1 83.9891 5.59097 83.9891 11.2022V125.204C83.9891 130.816 79.3943 135.407 73.7785 135.407Z" fill="white" stroke="#FEBB1B" stroke-width="2" stroke-linecap="round" stroke-linejoin="round"/>
<path fill-rule="evenodd" clip-rule="evenodd" d="M73.7785 135.407H26.1743C20.5576 135.407 15.9637 130.816 15.9637 125.204V11.2022C15.9637 5.59097 20.5576 1 26.1743 1H73.7785C79.3943 1 83.9891 5.59097 83.9891 11.2022V125.204C83.9891 130.816 79.3943 135.407 73.7785 135.407Z" stroke="#37334A" stroke-width="2" stroke-linecap="round" stroke-linejoin="round"/>
<path fill-rule="evenodd" clip-rule="evenodd" d="M55.2396 125.628C55.2396 128.533 52.8826 130.887 49.976 130.887C47.0686 130.887 44.7125 128.533 44.7125 125.628C44.7125 122.723 47.0686 120.369 49.976 120.369C52.8826 120.369 55.2396 122.723 55.2396 125.628Z" stroke="#37334A" stroke-width="2" stroke-linecap="round" stroke-linejoin="round"/>
<path d="M46.9742 7.24023H57.3422" stroke="#37334A" stroke-width="2" stroke-linecap="round" stroke-linejoin="round"/>
<path d="M42.61 7.24023H43.9416" stroke="#37334A" stroke-width="2" stroke-linecap="round" stroke-linejoin="round"/>
<path fill-rule="evenodd" clip-rule="evenodd" d="M195.814 72.7285C195.214 66.7908 185.301 69.0744 180.044 69.531C165.645 37.7878 155.36 40.0714 151.017 40.0714C146.674 40.0714 113.076 39.8427 99.3635 40.0714C85.649 40.3001 76.7361 64.9638 73.307 69.531C73.307 69.531 58.4226 65.5351 57.7657 70.9014C57.2688 75.9252 60.2801 76.8391 66.9084 78.2087C57.3088 117.032 68.5081 119.087 68.5081 119.087V131.191C68.5081 135.302 73.307 135.406 73.307 135.406H83.5925C86.5646 135.406 86.5646 130.277 86.5646 130.277V120.229H166.787V131.191C166.787 136.444 172.044 135.302 172.044 135.302H180.501C184.843 135.302 185.301 130.735 185.301 130.735V119.087C195.357 109.953 188.043 81.1776 186.9 77.5243C189.872 77.2956 196.161 76.1666 195.814 72.7285Z" fill="#00BFCC"/>
<path fill-rule="evenodd" clip-rule="evenodd" d="M84.2999 66.3295C85.338 64.4633 86.6892 61.5293 86.6892 61.5293C89.2035 56.2769 92.071 48.973 100.527 48.973H149.667C154.01 48.973 160.637 48.5165 167.037 61.9901C170.237 68.1565 174.351 74.5507 165.437 74.5507H92.756C88.4139 74.5507 78.9734 76.0572 84.2999 66.3295Z" fill="#FDFFFE"/>
<path fill-rule="evenodd" clip-rule="evenodd" d="M86.8442 110.105C83.53 110.105 76.7885 108.507 73.3594 106.68C69.9312 104.853 71.0739 98.0015 71.4168 97.1454C71.7589 96.2892 73.8163 94.8048 75.6449 95.7179C77.4734 96.6318 81.6189 97.6164 86.0452 98.5728C91.2475 99.6976 92.2149 102.455 92.7867 105.526C93.3585 108.596 90.1592 110.105 86.8442 110.105Z" fill="#FDFFFE"/>
<path fill-rule="evenodd" clip-rule="evenodd" d="M146.204 110.806C138.433 111.492 117.863 111.263 111.006 110.806C104.149 110.349 97.0637 111.492 99.35 100.987C110.092 102.128 145.29 101.9 153.975 100.987C155.803 105.782 153.975 110.121 146.204 110.806Z" fill="#FDFFFE"/>
<path fill-rule="evenodd" clip-rule="evenodd" d="M181.264 106.68C177.836 108.507 171.094 110.105 167.779 110.105C164.465 110.105 161.265 108.596 161.837 105.526C162.409 102.455 163.377 99.6971 168.579 98.5723C173.006 97.6159 177.15 96.6314 178.978 95.7174C180.807 94.8043 182.864 96.2887 183.207 97.1449C183.55 98.001 184.693 104.853 181.264 106.68Z" fill="#FDFFFE"/>
<path d="M1 135.407H211.609" stroke="#37334A" stroke-width="2" stroke-linecap="round" stroke-linejoin="round"/>
<path d="M216.135 135.407H218.683" stroke="#37334A" stroke-width="2" stroke-linecap="round" stroke-linejoin="round"/>
<path d="M223.838 135.407H255.358C283.608 135.407 290.732 133.73 290.732 125.031C290.732 116.732 283.807 116.331 254.917 116.331C235.526 116.331 226.424 115.739 226.424 107.237C226.424 96.9989 243.699 97.9978 259.873 98.286" stroke="#37334A" stroke-width="2" stroke-linecap="round" stroke-linejoin="round" stroke-dasharray="6.06 6.06"/>
<path d="M262.455 98.3247C263.313 98.3341 264.166 98.34 265.009 98.34" stroke="#37334A" stroke-width="2" stroke-linecap="round" stroke-linejoin="round"/>
<path fill-rule="evenodd" clip-rule="evenodd" d="M263.779 61.0086C258.958 61.0086 255.169 57.2985 255.169 52.5774C255.169 47.8572 258.958 44.147 263.779 44.147C268.6 44.147 272.389 47.8572 272.389 52.5774C272.389 57.2985 268.6 61.0086 263.779 61.0086ZM263.779 28.9712C250.519 28.9712 239.671 39.5933 239.671 52.5773C239.671 70.2823 263.779 96.4185 263.779 96.4185C263.779 96.4185 287.887 70.2823 287.887 52.5773C287.887 39.5933 277.039 28.9712 263.779 28.9712Z" fill="white"/>
<path d="M263.779 96.4185L263.044 97.0965C263.234 97.3018 263.5 97.4185 263.779 97.4185C264.059 97.4185 264.325 97.3018 264.514 97.0965L263.779 96.4185ZM263.779 60.0086C259.491 60.0086 256.169 56.7265 256.169 52.5774H254.169C254.169 57.8704 258.426 62.0086 263.779 62.0086V60.0086ZM256.169 52.5774C256.169 48.4293 259.491 45.147 263.779 45.147V43.147C258.426 43.147 254.169 47.2852 254.169 52.5774H256.169ZM263.779 45.147C268.068 45.147 271.389 48.4293 271.389 52.5774H273.389C273.389 47.2852 269.133 43.147 263.779 43.147V45.147ZM271.389 52.5774C271.389 56.7265 268.068 60.0086 263.779 60.0086V62.0086C269.133 62.0086 273.389 57.8704 273.389 52.5774H271.389ZM263.779 27.9712C249.987 27.9712 238.671 39.0213 238.671 52.5773H240.671C240.671 40.1653 251.052 29.9712 263.779 29.9712V27.9712ZM238.671 52.5773C238.671 57.2101 240.242 62.3153 242.529 67.3128C244.822 72.3239 247.869 77.3031 250.902 81.7046C253.937 86.1091 256.969 89.9535 259.243 92.6962C260.38 94.0681 261.328 95.1657 261.993 95.9214C262.325 96.2993 262.587 96.5918 262.766 96.7905C262.856 96.8898 262.925 96.9657 262.972 97.017C262.995 97.0427 263.013 97.0622 263.025 97.0755C263.031 97.0822 263.036 97.0873 263.039 97.0908C263.041 97.0925 263.042 97.0939 263.043 97.0948C263.043 97.0953 263.044 97.0957 263.044 97.096C263.044 97.0963 263.044 97.0965 263.779 96.4185C264.514 95.7405 264.514 95.7405 264.514 95.7404C264.514 95.7403 264.514 95.7401 264.514 95.7398C264.513 95.7392 264.512 95.7381 264.511 95.7367C264.508 95.7339 264.504 95.7294 264.499 95.7234C264.488 95.7115 264.471 95.6933 264.449 95.669C264.405 95.6203 264.338 95.5473 264.251 95.4509C264.077 95.258 263.821 94.9717 263.494 94.6003C262.841 93.8576 261.905 92.775 260.782 91.4199C258.535 88.7088 255.541 84.9126 252.549 80.5699C249.555 76.2242 246.575 71.3497 244.348 66.4807C242.114 61.5982 240.671 56.7969 240.671 52.5773H238.671ZM263.779 96.4185C264.514 97.0965 264.515 97.0963 264.515 97.096C264.515 97.0957 264.516 97.0953 264.516 97.0948C264.517 97.0939 264.518 97.0925 264.52 97.0908C264.523 97.0873 264.528 97.0822 264.534 97.0755C264.546 97.0622 264.564 97.0427 264.587 97.017C264.634 96.9657 264.703 96.8898 264.793 96.7905C264.972 96.5918 265.234 96.2993 265.566 95.9214C266.231 95.1657 267.179 94.0681 268.316 92.6962C270.589 89.9535 273.622 86.1091 276.657 81.7046C279.69 77.3031 282.737 72.3239 285.03 67.3128C287.316 62.3153 288.887 57.2101 288.887 52.5773H286.887C286.887 56.7969 285.445 61.5982 283.211 66.4807C280.984 71.3497 278.004 76.2242 275.01 80.5699C272.018 84.9126 269.023 88.7088 266.776 91.4199C265.653 92.775 264.718 93.8576 264.064 94.6003C263.738 94.9717 263.482 95.258 263.308 95.4509C263.221 95.5473 263.154 95.6203 263.11 95.669C263.088 95.6933 263.071 95.7115 263.06 95.7234C263.054 95.7294 263.05 95.7339 263.048 95.7367C263.047 95.7381 263.046 95.7392 263.045 95.7398C263.045 95.7401 263.045 95.7403 263.044 95.7404C263.044 95.7405 263.044 95.7405 263.779 96.4185ZM288.887 52.5773C288.887 39.0213 277.572 27.9712 263.779 27.9712V29.9712C276.507 29.9712 286.887 40.1653 286.887 52.5773H288.887Z" fill="#37334A"/>
<path d="M263.779 96.4185L263.044 97.0965C263.234 97.3018 263.5 97.4185 263.779 97.4185C264.059 97.4185 264.325 97.3018 264.514 97.0965L263.779 96.4185ZM263.779 60.0086C259.491 60.0086 256.169 56.7265 256.169 52.5774H254.169C254.169 57.8704 258.426 62.0086 263.779 62.0086V60.0086ZM256.169 52.5774C256.169 48.4293 259.491 45.147 263.779 45.147V43.147C258.426 43.147 254.169 47.2852 254.169 52.5774H256.169ZM263.779 45.147C268.068 45.147 271.389 48.4293 271.389 52.5774H273.389C273.389 47.2852 269.133 43.147 263.779 43.147V45.147ZM271.389 52.5774C271.389 56.7265 268.068 60.0086 263.779 60.0086V62.0086C269.133 62.0086 273.389 57.8704 273.389 52.5774H271.389ZM263.779 27.9712C249.987 27.9712 238.671 39.0213 238.671 52.5773H240.671C240.671 40.1653 251.052 29.9712 263.779 29.9712V27.9712ZM238.671 52.5773C238.671 57.2101 240.242 62.3153 242.529 67.3128C244.822 72.3239 247.869 77.3031 250.902 81.7046C253.937 86.1091 256.969 89.9535 259.243 92.6962C260.38 94.0681 261.328 95.1657 261.993 95.9214C262.325 96.2993 262.587 96.5918 262.766 96.7905C262.856 96.8898 262.925 96.9657 262.972 97.017C262.995 97.0427 263.013 97.0622 263.025 97.0755C263.031 97.0822 263.036 97.0873 263.039 97.0908C263.041 97.0925 263.042 97.0939 263.043 97.0948C263.043 97.0953 263.044 97.0957 263.044 97.096C263.044 97.0963 263.044 97.0965 263.779 96.4185C264.514 95.7405 264.514 95.7405 264.514 95.7404C264.514 95.7403 264.514 95.7401 264.514 95.7398C264.513 95.7392 264.512 95.7381 264.511 95.7367C264.508 95.7339 264.504 95.7294 264.499 95.7234C264.488 95.7115 264.471 95.6933 264.449 95.669C264.405 95.6203 264.338 95.5473 264.251 95.4509C264.077 95.258 263.821 94.9717 263.494 94.6003C262.841 93.8576 261.905 92.775 260.782 91.4199C258.535 88.7088 255.541 84.9126 252.549 80.5699C249.555 76.2242 246.575 71.3497 244.348 66.4807C242.114 61.5982 240.671 56.7969 240.671 52.5773H238.671ZM263.779 96.4185C264.514 97.0965 264.515 97.0963 264.515 97.096C264.515 97.0957 264.516 97.0953 264.516 97.0948C264.517 97.0939 264.518 97.0925 264.52 97.0908C264.523 97.0873 264.528 97.0822 264.534 97.0755C264.546 97.0622 264.564 97.0427 264.587 97.017C264.634 96.9657 264.703 96.8898 264.793 96.7905C264.972 96.5918 265.234 96.2993 265.566 95.9214C266.231 95.1657 267.179 94.0681 268.316 92.6962C270.589 89.9535 273.622 86.1091 276.657 81.7046C279.69 77.3031 282.737 72.3239 285.03 67.3128C287.316 62.3153 288.887 57.2101 288.887 52.5773H286.887C286.887 56.7969 285.445 61.5982 283.211 66.4807C280.984 71.3497 278.004 76.2242 275.01 80.5699C272.018 84.9126 269.023 88.7088 266.776 91.4199C265.653 92.775 264.718 93.8576 264.064 94.6003C263.738 94.9717 263.482 95.258 263.308 95.4509C263.221 95.5473 263.154 95.6203 263.11 95.669C263.088 95.6933 263.071 95.7115 263.06 95.7234C263.054 95.7294 263.05 95.7339 263.048 95.7367C263.047 95.7381 263.046 95.7392 263.045 95.7398C263.045 95.7401 263.045 95.7403 263.044 95.7404C263.044 95.7405 263.044 95.7405 263.779 96.4185ZM288.887 52.5773C288.887 39.0213 277.572 27.9712 263.779 27.9712V29.9712C276.507 29.9712 286.887 40.1653 286.887 52.5773H288.887Z" fill="#37334A"/>
<path fill-rule="evenodd" clip-rule="evenodd" d="M196.173 72.0152C195.577 66.0561 185.658 68.3494 180.397 68.8097C176.804 60.8729 173.476 55.0579 170.419 50.8047C161.233 37.9745 154.618 39.2703 151.357 39.2703C147.007 39.2703 113.396 39.0401 99.6708 39.2703C85.9478 39.4919 77.0341 64.2224 73.6031 68.8097C73.6031 68.8097 58.7044 64.8029 58.0489 70.1823C57.556 75.2206 60.5689 76.1328 67.201 77.5045C57.5968 116.439 68.8015 118.503 68.8015 118.503V130.634C68.8015 134.76 73.6031 134.862 73.6031 134.862H83.896C86.8673 134.862 86.8673 129.721 86.8673 129.721V119.645H167.133V130.634C167.133 135.901 172.394 134.76 172.394 134.76H180.857C185.199 134.76 185.658 130.181 185.658 130.181V118.503C195.722 109.338 188.4 80.4883 187.259 76.8233C190.231 76.5931 196.522 75.4593 196.173 72.0152Z" fill="#FFCC00"/>
<path opacity="0.1" fill-rule="evenodd" clip-rule="evenodd" d="M187.269 77.2833C188.409 80.92 195.721 109.54 185.67 118.632V130.218C185.67 130.218 185.211 134.76 180.874 134.76H172.422C172.422 134.76 167.165 135.893 167.165 130.667V119.765H101.78L111.075 110.521L111.211 110.386L120.106 101.539L170.449 51.4712C173.502 55.6914 176.827 61.4594 180.414 69.3333C185.67 68.8766 195.578 66.6015 196.173 72.5133C196.521 75.9301 190.237 77.0549 187.269 77.2833Z" fill="#242E42"/>
<path fill-rule="evenodd" clip-rule="evenodd" d="M164.83 74.6269H92.6064C88.2853 74.6269 78.9083 76.1503 84.201 66.3043C85.2326 64.4194 86.5772 61.4501 86.5772 61.4501C89.0717 56.1312 91.9214 48.7381 100.328 48.7381H149.627C152.222 48.7295 155.562 48.7381 159.148 51.6299C161.515 53.532 163.985 56.6907 166.421 61.9149C169.608 68.1547 173.692 74.6269 164.83 74.6269Z" fill="#FDFFFE"/>
<path fill-rule="evenodd" clip-rule="evenodd" d="M145.563 48.7373L119.567 74.712H101.78L127.777 48.7373H145.563Z" fill="#EDEDED"/>
<path fill-rule="evenodd" clip-rule="evenodd" d="M160.613 51.6394L137.62 74.712H125.039L150.924 48.7381C153.565 48.7295 156.964 48.7381 160.613 51.6394Z" fill="#EDEDED"/>
<path fill-rule="evenodd" clip-rule="evenodd" d="M86.1945 110.256C82.881 110.256 76.141 108.618 72.7127 106.746C69.2852 104.874 70.4277 97.8523 70.7705 96.9749C71.1125 96.0976 73.1695 94.5764 74.9976 95.5121C76.8258 96.4487 80.9703 97.4576 85.3956 98.4378C90.5968 99.5904 91.564 102.416 92.1357 105.563C92.7074 108.71 89.5088 110.256 86.1945 110.256Z" fill="#FDFFFE"/>
<path fill-rule="evenodd" clip-rule="evenodd" d="M146.658 111.162C138.834 111.893 118.123 111.649 111.22 111.162C104.316 110.674 97.182 111.893 99.484 100.687C110.3 101.904 145.738 101.661 154.482 100.687C156.323 105.802 154.482 110.431 146.658 111.162Z" fill="#FDFFFE"/>
<path fill-rule="evenodd" clip-rule="evenodd" d="M181.471 106.746C178.044 108.618 171.303 110.256 167.988 110.256C164.676 110.256 161.476 108.71 162.048 105.564C162.62 102.417 163.588 99.5904 168.789 98.4378C173.214 97.4576 177.358 96.4487 179.185 95.5121C181.014 94.5764 183.07 96.0976 183.413 96.9749C183.756 97.8523 184.898 104.874 181.471 106.746Z" fill="#FDFFFE"/>
<path d="M34.4336 47.6613C34.5628 41.0186 36.3087 35.9807 41.1114 32.4758C48.6149 26.9994 58.9924 30.103 62.7835 38.8884C65.2731 44.6572 64.6743 50.4353 62.4684 56.1294C60.483 61.2016 57.4261 65.6642 53.9974 69.8688C53.4621 70.548 52.7778 71.0988 51.9958 71.4795C51.2138 71.8603 50.3546 72.0612 49.4826 72.0672C48.6106 72.0732 47.7486 71.8841 46.9613 71.5141C46.1741 71.1441 45.482 70.6028 44.9372 69.931C43.4371 68.1428 42.1577 66.1712 40.7332 64.3146C39.9895 63.3443 40.103 62.6166 41.0011 61.7863C42.8352 60.0883 44.6063 58.3188 46.3585 56.5337C46.6516 56.2227 46.6736 55.6878 46.8406 55.2587C46.3553 55.3489 45.7156 55.2773 45.4099 55.5697C43.6861 57.1588 42.019 58.8101 40.3677 60.4863C39.4506 61.4193 38.8708 61.3136 38.2342 60.1753C36.3654 56.8167 36.3434 56.8323 39.1166 54.1142C39.9738 53.2746 40.8656 52.466 41.6566 51.5704C41.8867 51.306 41.8205 50.7867 41.893 50.3886C41.4801 50.4633 40.9475 50.3886 40.6765 50.6374C39.5861 51.6077 38.5935 52.6775 37.5251 53.6851C36.2866 54.8637 35.7225 54.7331 35.357 53.0351C34.9126 50.9577 34.6353 48.8555 34.4336 47.6613ZM61.3465 42.3061C61.1038 39.8431 57.7917 36.3974 55.4723 36.4969C54.537 36.5336 53.6395 36.8711 52.9165 37.4578C50.3954 39.7809 47.9688 42.2159 45.5738 44.6758C44.1966 46.0908 44.1966 48.0967 45.4698 49.6174C46.0197 50.2421 46.6014 50.8389 47.2125 51.4055C49.1727 53.3026 51.2053 53.343 53.1497 51.4646C55.3967 49.2877 57.6373 47.1108 59.7897 44.8562C60.4641 44.1503 60.836 43.1644 61.3465 42.3061Z" fill="black"/>
<path d="M60.0544 81.9195C57.4325 84.2301 42.186 84.3265 38.6628 81.9817C39.2679 81.6396 39.7217 81.2198 40.2385 81.1171C46.2589 79.9205 52.4593 79.9068 58.485 81.0767C58.8412 81.1587 59.1846 81.2873 59.5061 81.4592C59.7058 81.5918 59.8898 81.7462 60.0544 81.9195Z" fill="black"/>
<path d="M51.8703 50.3855C50.2378 48.7964 48.618 47.2135 46.639 45.2885C47.6411 45.4688 48.6685 45.3507 49.0813 45.7892C50.3324 47.1264 52.6896 47.9754 51.8703 50.3855Z" fill="black"/>
<path d="M58.5008 45.0583L52.8283 50.3233C52.9165 49.6578 52.7684 48.7466 53.1245 48.4729C54.7191 47.2476 55.5227 44.7504 58.5008 45.0583Z" fill="black"/>
<path d="M52.2358 38.8728C52.6928 41.4696 49.2073 44.9526 46.6169 44.4706L52.2358 38.8728Z" fill="black"/>
<path d="M58.2392 44.3089C57.5774 44.2063 56.6131 44.34 56.3074 43.9606C55.1634 42.5269 52.7463 41.8552 53.4963 39.1216L58.444 43.7367C58.3747 43.9295 58.3085 44.1192 58.2392 44.3089Z" fill="black"/>
</svg>
