<svg width="20" height="20" viewBox="0 0 20 20" fill="none" xmlns="http://www.w3.org/2000/svg">
<path d="M9.70878 2.1394C8.01067 2.14141 6.38268 2.81687 5.18193 4.01762C3.98118 5.21836 3.30572 6.84635 3.30372 8.54447C3.30168 9.93217 3.75497 11.2822 4.59405 12.3875C4.59405 12.3875 4.76873 12.6175 4.79726 12.6507L9.70878 18.4432L14.6226 12.6478C14.6482 12.6169 14.8235 12.3875 14.8235 12.3875L14.8241 12.3858C15.6628 11.2809 16.1158 9.93153 16.1138 8.54447C16.1118 6.84635 15.4364 5.21836 14.2356 4.01762C13.0349 2.81687 11.4069 2.14141 9.70878 2.1394ZM9.70878 10.8736C9.24813 10.8736 8.79782 10.737 8.41479 10.4811C8.03177 10.2251 7.73325 9.86137 7.55696 9.43578C7.38068 9.01019 7.33455 8.54188 7.42442 8.09008C7.51429 7.63828 7.73612 7.22327 8.06185 6.89753C8.38758 6.5718 8.80259 6.34998 9.25439 6.26011C9.7062 6.17024 10.1745 6.21636 10.6001 6.39265C11.0257 6.56893 11.3894 6.86746 11.6454 7.25048C11.9013 7.6335 12.0379 8.08381 12.0379 8.54447C12.0371 9.16195 11.7915 9.75392 11.3549 10.1905C10.9182 10.6272 10.3263 10.8728 9.70878 10.8736Z" fill="black"/>
</svg>
