<svg width="24" height="24" viewBox="0 0 24 24" fill="none" xmlns="http://www.w3.org/2000/svg">
<path d="M22 12L17 16V13H8V11H17V8L22 12Z" fill="#EB001B"/>
<path d="M10.999 2.99906C12.1815 2.99578 13.3529 3.22717 14.4453 3.67982C15.5377 4.13247 16.5294 4.79739 17.363 5.63606L15.949 7.05006C14.627 5.72806 12.869 4.99906 10.999 4.99906C9.12901 4.99906 7.37101 5.72806 6.04901 7.05006C4.72701 8.37206 3.99801 10.1301 3.99801 12.0001C3.99801 13.8701 4.72701 15.6281 6.04901 16.9501C7.37101 18.2721 9.12901 19.0011 10.999 19.0011C12.869 19.0011 14.627 18.2721 15.949 16.9501L17.363 18.3641C15.664 20.0641 13.404 21.0011 10.999 21.0011C8.59401 21.0011 6.33401 20.0641 4.63501 18.3641C2.93501 16.6651 1.99801 14.4051 1.99801 12.0001C1.99801 9.59506 2.93501 7.33506 4.63501 5.63606C5.46861 4.79739 6.46034 4.13247 7.55275 3.67982C8.64516 3.22717 9.81653 2.99578 10.999 2.99906Z" fill="#EB001B"/>
</svg>
