<svg width="28" height="28" viewBox="0 0 28 28" fill="none" xmlns="http://www.w3.org/2000/svg">
<path d="M8.16666 7C7.2384 7 6.34816 7.36875 5.69178 8.02513C5.03541 8.6815 4.66666 9.57174 4.66666 10.5V17.5C4.66666 18.4283 5.03541 19.3185 5.69178 19.9749C6.34816 20.6313 7.2384 21 8.16666 21H19.8333C20.7616 21 21.6518 20.6313 22.3082 19.9749C22.9646 19.3185 23.3333 18.4283 23.3333 17.5V10.5C23.3333 9.57174 22.9646 8.6815 22.3082 8.02513C21.6518 7.36875 20.7616 7 19.8333 7H8.16666ZM6.99999 10.5C6.99999 10.1906 7.12291 9.89383 7.3417 9.67504C7.56049 9.45625 7.85724 9.33333 8.16666 9.33333H19.8333C20.1427 9.33333 20.4395 9.45625 20.6583 9.67504C20.8771 9.89383 21 10.1906 21 10.5V10.8967L14 13.8973L6.99999 10.8967V10.5ZM6.99999 13.4353L13.5403 16.2377C13.6856 16.2999 13.842 16.332 14 16.332C14.158 16.332 14.3144 16.2999 14.4597 16.2377L21 13.4353V17.5C21 17.8094 20.8771 18.1062 20.6583 18.325C20.4395 18.5437 20.1427 18.6667 19.8333 18.6667H8.16666C7.85724 18.6667 7.56049 18.5437 7.3417 18.325C7.12291 18.1062 6.99999 17.8094 6.99999 17.5V13.4353Z" fill="black"/>
</svg>
