<svg width="73" height="69" viewBox="0 0 73 69" fill="none" xmlns="http://www.w3.org/2000/svg">
<path d="M65.7893 45.5359V44.8264H65.6001L65.3812 45.3137L65.1635 44.8264H64.9731V45.5359H65.1075V45.0009L65.3122 45.4626H65.4514L65.656 44.9997V45.5359H65.7893ZM64.5888 45.5359V44.9474H64.8315V44.8276H64.2128V44.9474H64.4555V45.5359H64.5888Z" fill="#F79410"/>
<path d="M44.3273 48.5828H27.9886V19.8792H44.3273V48.5828Z" fill="#FF5F00"/>
<path d="M29.0336 34.2253C29.0336 28.4026 31.8224 23.2159 36.1655 19.8734C32.9895 17.4292 28.9813 15.9704 24.6252 15.9704C14.3127 15.9704 5.95312 24.1433 5.95312 34.2253C5.95312 44.3073 14.3127 52.4802 24.6252 52.4802C28.9813 52.4802 32.9895 51.0214 36.1655 48.5772C31.8224 45.2347 29.0336 40.048 29.0336 34.2253Z" fill="#EB001B"/>
<path d="M66.3707 34.2204C66.3707 44.3025 58.0112 52.4753 47.6986 52.4753C43.3426 52.4753 39.3343 51.0165 36.1572 48.5723C40.5014 45.2298 43.2903 40.0431 43.2903 34.2204C43.2903 28.3977 40.5014 23.2111 36.1572 19.8686C39.3343 17.4244 43.3426 15.9655 47.6986 15.9655C58.0112 15.9655 66.3707 24.1384 66.3707 34.2204Z" fill="#F79E1B"/>
</svg>
