<svg width="20" height="18" viewBox="0 0 20 18" fill="none" xmlns="http://www.w3.org/2000/svg">
<path fill-rule="evenodd" clip-rule="evenodd" d="M0.222168 1.66656C0.222168 0.991543 0.636271 0.444336 1.14709 0.444336L16.4084 0.444337C16.9192 0.444337 17.3333 0.991544 17.3333 1.66656C17.3333 2.34157 16.9192 2.88878 16.4084 2.88878L1.14709 2.88878C0.636271 2.88878 0.222168 2.34157 0.222168 1.66656Z" fill="black"/>
<path fill-rule="evenodd" clip-rule="evenodd" d="M13.7155 17.5553L1.3955 17.5553C0.747488 17.5553 0.222168 17.0081 0.222168 16.3331C0.222168 15.6581 0.747487 15.1109 1.3955 15.1109L13.7155 15.1108C14.3635 15.1108 14.8888 15.658 14.8888 16.3331C14.8888 17.0081 14.3635 17.5553 13.7155 17.5553Z" fill="black"/>
<path fill-rule="evenodd" clip-rule="evenodd" d="M18.7527 10.2223L4.91401 10.2223C4.34786 10.2223 3.88892 9.67507 3.88892 9.00005C3.88892 8.32504 4.34786 7.77783 4.91401 7.77783L18.7527 7.77783C19.3189 7.77783 19.7778 8.32504 19.7778 9.00005C19.7778 9.67507 19.3189 10.2223 18.7527 10.2223Z" fill="black"/>
</svg>
