<svg width="20" height="18" viewBox="0 0 20 18" fill="none" xmlns="http://www.w3.org/2000/svg">
<path fill-rule="evenodd" clip-rule="evenodd" d="M0.222168 1.66668C0.222168 0.991665 0.636271 0.444458 1.14709 0.444458L16.4084 0.444459C16.9192 0.444459 17.3333 0.991666 17.3333 1.66668C17.3333 2.3417 16.9192 2.8889 16.4084 2.8889L1.14709 2.8889C0.636271 2.8889 0.222168 2.34169 0.222168 1.66668Z" fill="black"/>
<path fill-rule="evenodd" clip-rule="evenodd" d="M13.7155 17.5555L1.3955 17.5556C0.747488 17.5556 0.222168 17.0084 0.222168 16.3333C0.222168 15.6583 0.747487 15.1111 1.3955 15.1111L13.7155 15.1111C14.3635 15.1111 14.8888 15.6583 14.8888 16.3333C14.8888 17.0083 14.3635 17.5555 13.7155 17.5555Z" fill="black"/>
<path fill-rule="evenodd" clip-rule="evenodd" d="M18.7526 10.2222L4.91388 10.2222C4.34774 10.2222 3.88879 9.67504 3.88879 9.00002C3.88879 8.32501 4.34774 7.7778 4.91388 7.7778L18.7526 7.7778C19.3187 7.7778 19.7777 8.32501 19.7777 9.00002C19.7777 9.67504 19.3187 10.2222 18.7526 10.2222Z" fill="black"/>
</svg>
