<svg width="20" height="20" viewBox="0 0 20 20" fill="none" xmlns="http://www.w3.org/2000/svg">
<path d="M10 0.375C7.44729 0.375 4.99913 1.38906 3.1941 3.1941C1.38906 4.99913 0.375 7.44729 0.375 10C0.375 12.5527 1.38906 15.0009 3.1941 16.8059C4.99913 18.6109 7.44729 19.625 10 19.625C12.5527 19.625 15.0009 18.6109 16.8059 16.8059C18.6109 15.0009 19.625 12.5527 19.625 10C19.625 7.44729 18.6109 4.99913 16.8059 3.1941C15.0009 1.38906 12.5527 0.375 10 0.375ZM10 18.25V1.75C11.0834 1.75 12.1562 1.96339 13.1571 2.37799C14.1581 2.7926 15.0675 3.40029 15.8336 4.16637C16.5997 4.93245 17.2074 5.84193 17.622 6.84286C18.0366 7.8438 18.25 8.91659 18.25 10C18.25 11.0834 18.0366 12.1562 17.622 13.1571C17.2074 14.1581 16.5997 15.0675 15.8336 15.8336C15.0675 16.5997 14.1581 17.2074 13.1571 17.622C12.1562 18.0366 11.0834 18.25 10 18.25Z" fill="black" fill-opacity="0.5"/>
</svg>
