<svg width="20" height="18" viewBox="0 0 20 18" fill="none" xmlns="http://www.w3.org/2000/svg">
<path d="M2.82609 18V11.521H0V9.90756H2.82609V7.84034H0V6.22689H2.82609V0H6.5942L10.0362 6.22689H14.3116V0H17.1739V6.22689H20V7.84034H17.1739V9.90756H20V11.521H17.1739V18H13.3696L9.92754 11.521H5.65217V18H2.82609ZM5.65217 9.90756H9.05797L7.97101 7.84034H5.57971L5.65217 9.90756ZM14.3116 14.4454H14.4565L14.3478 11.521H12.8261L14.3116 14.4454ZM5.57971 6.22689H7.10145L5.57971 3.10084H5.43478L5.57971 6.22689ZM11.9565 9.90756H14.3841L14.3116 7.84034H10.8696L11.9565 9.90756Z" fill="white"/>
</svg>
