<svg width="26" height="26" viewBox="0 0 26 26" fill="none" xmlns="http://www.w3.org/2000/svg">
<path fill-rule="evenodd" clip-rule="evenodd" d="M13 1.08334C6.41879 1.08334 1.08337 6.41875 1.08337 13C1.08337 19.5813 6.41879 24.9167 13 24.9167C19.5813 24.9167 24.9167 19.5813 24.9167 13C24.9167 6.41875 19.5813 1.08334 13 1.08334ZM3.25004 13C3.25004 11.7196 3.50223 10.4518 3.99221 9.26884C4.4822 8.08591 5.20038 7.01108 6.10575 6.10571C7.01112 5.20034 8.08595 4.48216 9.26888 3.99218C10.4518 3.50219 11.7197 3.25 13 3.25C14.2804 3.25 15.5483 3.50219 16.7312 3.99218C17.9141 4.48216 18.989 5.20034 19.8943 6.10571C20.7997 7.01108 21.5179 8.08591 22.0079 9.26884C22.4978 10.4518 22.75 11.7196 22.75 13C22.75 15.5859 21.7228 18.0658 19.8943 19.8943C18.0658 21.7228 15.5859 22.75 13 22.75C10.4142 22.75 7.93423 21.7228 6.10575 19.8943C4.27727 18.0658 3.25004 15.5859 3.25004 13ZM14.0834 7.58334C14.0834 7.29602 13.9692 7.02047 13.7661 6.8173C13.5629 6.61414 13.2874 6.5 13 6.5C12.7127 6.5 12.4372 6.61414 12.234 6.8173C12.0308 7.02047 11.9167 7.29602 11.9167 7.58334V13C11.9167 13.1682 11.9559 13.3341 12.0311 13.4845C12.1063 13.6349 12.2155 13.7658 12.35 13.8667L16.6834 17.1167C16.9132 17.2891 17.2022 17.3631 17.4866 17.3224C17.771 17.2818 18.0276 17.1299 18.2 16.9C18.3724 16.6701 18.4465 16.3812 18.4058 16.0968C18.3652 15.8124 18.2132 15.5557 17.9834 15.3833L14.0834 12.4583V7.58334Z" fill="white"/>
</svg>
