<svg width="22" height="22" viewBox="0 0 22 22" fill="none" xmlns="http://www.w3.org/2000/svg">
<g clip-path="url(#clip0_5_1237)">
<path d="M0.6875 11C0.6875 15.5031 3.575 19.3187 7.5625 20.7281V1.27185C3.575 2.68123 0.6875 6.49685 0.6875 11ZM21.3125 11C21.3125 6.49685 18.4594 2.68123 14.4375 1.27185V20.7281C18.4594 19.3187 21.3125 15.5031 21.3125 11Z" fill="#83BF4F"/>
<path d="M7.5625 20.7281C8.62812 21.1062 9.79688 21.3125 11 21.3125C12.2031 21.3125 13.3719 21.1062 14.4375 20.7281V1.27188C13.3719 0.89375 12.2031 0.6875 11 0.6875C9.79688 0.6875 8.62812 0.89375 7.5625 1.27188V20.7281Z" fill="#F9F9F9"/>
</g>
<defs>
<clipPath id="clip0_5_1237">
<rect width="22" height="22" fill="white"/>
</clipPath>
</defs>
</svg>
