<svg width="338" height="98" viewBox="0 0 338 98" fill="none" xmlns="http://www.w3.org/2000/svg">
<g clip-path="url(#clip0_46_2017)">
<path d="M5.85245 98H0.0177612V0H5.85245V98ZM11.6871 97.9304H8.72349V0H11.6871V97.9304ZM20.3929 97.9304H17.5218V0H20.3929V97.9304ZM34.9333 97.9304H32.0622V0H34.9333V97.9304ZM49.4737 97.9304H43.7316V0H49.4737V97.9304ZM61.1431 97.9304H58.272V0H61.1431V97.9304ZM66.9778 97.9304H64.1067V0H66.9778V97.9304ZM72.8124 97.9304H69.9414V0H72.8124V97.9304ZM87.3529 97.9304H81.5182V0H87.3529V97.9304ZM101.893 97.9304H96.0586V0H101.893V97.9304ZM113.563 97.9304H107.728V0H113.563V97.9304ZM125.232 97.9304H119.397V0H125.232V97.9304ZM133.938 97.9304H128.103V0H133.938V97.9304ZM151.442 97.9304H142.736V0H151.442V97.9304ZM157.276 97.9304H154.313V0H157.276V97.9304ZM165.982 98H160.148V0H165.982V98Z" fill="black"/>
</g>
<g clip-path="url(#clip1_46_2017)">
<path d="M177.852 98H172.018V0H177.852V98ZM183.687 97.9304H180.723V0H183.687V97.9304ZM192.393 97.9304H189.522V0H192.393V97.9304ZM206.933 97.9304H204.062V0H206.933V97.9304ZM221.474 97.9304H215.732V0H221.474V97.9304ZM233.143 97.9304H230.272V0H233.143V97.9304ZM238.978 97.9304H236.107V0H238.978V97.9304ZM244.812 97.9304H241.941V0H244.812V97.9304ZM259.353 97.9304H253.518V0H259.353V97.9304ZM273.893 97.9304H268.059V0H273.893V97.9304ZM285.563 97.9304H279.728V0H285.563V97.9304ZM297.232 97.9304H291.397V0H297.232V97.9304ZM305.938 97.9304H300.103V0H305.938V97.9304ZM323.442 97.9304H314.736V0H323.442V97.9304ZM329.276 97.9304H326.313V0H329.276V97.9304ZM337.982 98H332.148V0H337.982V98Z" fill="black"/>
</g>
<defs>
<clipPath id="clip0_46_2017">
<rect width="166" height="98" fill="white"/>
</clipPath>
<clipPath id="clip1_46_2017">
<rect width="166" height="98" fill="white" transform="translate(172)"/>
</clipPath>
</defs>
</svg>
