<svg width="19" height="19" viewBox="0 0 19 19" fill="none" xmlns="http://www.w3.org/2000/svg">
<g clip-path="url(#clip0_7_451)">
<path fill-rule="evenodd" clip-rule="evenodd" d="M9.5 0.791748C4.69063 0.791748 0.791668 4.69071 0.791668 9.50008C0.791668 14.3095 4.69063 18.2084 9.5 18.2084C14.3094 18.2084 18.2083 14.3095 18.2083 9.50008C18.2083 4.69071 14.3094 0.791748 9.5 0.791748ZM13.2747 8.02758C13.3442 7.94813 13.3971 7.85558 13.4303 7.75538C13.4635 7.65518 13.4763 7.54935 13.468 7.44411C13.4598 7.33887 13.4305 7.23636 13.382 7.1426C13.3335 7.04884 13.2667 6.96572 13.1856 6.89814C13.1045 6.83056 13.0108 6.77988 12.9098 6.74909C12.8088 6.71829 12.7027 6.708 12.5977 6.71882C12.4927 6.72964 12.3909 6.76135 12.2983 6.81208C12.2058 6.86282 12.1243 6.93155 12.0587 7.01425L8.6545 11.0985L6.89304 9.33621C6.74373 9.192 6.54376 9.1122 6.33618 9.11401C6.12861 9.11581 5.93005 9.19907 5.78327 9.34585C5.63649 9.49263 5.55323 9.69119 5.55143 9.89876C5.54962 10.1063 5.62942 10.3063 5.77363 10.4556L8.14863 12.8306C8.22641 12.9084 8.31954 12.969 8.42208 13.0088C8.52462 13.0485 8.63431 13.0665 8.74417 13.0615C8.85403 13.0565 8.96165 13.0287 9.06016 12.9798C9.15867 12.9309 9.24592 12.8621 9.31633 12.7776L13.2747 8.02758Z" fill="#34A853"/>
</g>
<defs>
<clipPath id="clip0_7_451">
<rect width="19" height="19" fill="white"/>
</clipPath>
</defs>
</svg>
