<svg width="26" height="26" viewBox="0 0 26 26" fill="none" xmlns="http://www.w3.org/2000/svg">
<path d="M11.9166 19.5H14.0833V17.3333H11.9166V19.5ZM13 2.16667C11.5773 2.16667 10.1686 2.44688 8.85422 2.99131C7.53986 3.53573 6.3456 4.33371 5.33964 5.33968C3.30799 7.37132 2.16663 10.1268 2.16663 13C2.16663 15.8732 3.30799 18.6287 5.33964 20.6603C6.3456 21.6663 7.53986 22.4643 8.85422 23.0087C10.1686 23.5531 11.5773 23.8333 13 23.8333C15.8731 23.8333 18.6286 22.692 20.6603 20.6603C22.6919 18.6287 23.8333 15.8732 23.8333 13C23.8333 11.5773 23.5531 10.1686 23.0087 8.85426C22.4642 7.5399 21.6663 6.34565 20.6603 5.33968C19.6543 4.33371 18.4601 3.53573 17.1457 2.99131C15.8313 2.44688 14.4226 2.16667 13 2.16667ZM13 21.6667C8.22246 21.6667 4.33329 17.7775 4.33329 13C4.33329 8.2225 8.22246 4.33333 13 4.33333C17.7775 4.33333 21.6666 8.2225 21.6666 13C21.6666 17.7775 17.7775 21.6667 13 21.6667ZM13 6.5C11.8507 6.5 10.7485 6.95655 9.93583 7.7692C9.12317 8.58186 8.66663 9.68406 8.66663 10.8333H10.8333C10.8333 10.2587 11.0616 9.7076 11.4679 9.30127C11.8742 8.89494 12.4253 8.66667 13 8.66667C13.5746 8.66667 14.1257 8.89494 14.532 9.30127C14.9384 9.7076 15.1666 10.2587 15.1666 10.8333C15.1666 13 11.9166 12.7292 11.9166 16.25H14.0833C14.0833 13.8125 17.3333 13.5417 17.3333 10.8333C17.3333 9.68406 16.8767 8.58186 16.0641 7.7692C15.2514 6.95655 14.1492 6.5 13 6.5Z" fill="white"/>
</svg>
