<svg width="31" height="36" viewBox="0 0 31 36" fill="none" xmlns="http://www.w3.org/2000/svg">
<path fill-rule="evenodd" clip-rule="evenodd" d="M6.62804 3.49951C6.62804 3.06157 11.0808 0 15.502 0C19.9232 0 24.3759 3.06257 24.3759 3.49951C24.3759 5.0593 24.2122 5.98317 24.0742 6.4861C23.9825 6.81605 23.6778 6.99903 23.3396 6.99903H7.66432C7.32612 6.99903 7.02145 6.81605 6.92976 6.4861C6.79172 5.98317 6.62804 5.0593 6.62804 3.49951ZM14.023 2.99958C13.7615 2.99958 13.5107 3.10492 13.3258 3.29243C13.1409 3.47995 13.037 3.73426 13.037 3.99944C13.037 4.26462 13.1409 4.51894 13.3258 4.70645C13.5107 4.89396 13.7615 4.9993 14.023 4.9993H16.981C17.2425 4.9993 17.4933 4.89396 17.6782 4.70645C17.8631 4.51894 17.967 4.26462 17.967 3.99944C17.967 3.73426 17.8631 3.47995 17.6782 3.29243C17.4933 3.10492 17.2425 2.99958 16.981 2.99958H14.023ZM7.6515 13.2162C4.36815 12.1863 5.19638 10.3466 6.44859 8.99875H24.8295C25.8312 10.2966 26.3686 12.0473 23.3406 13.0952C23.4644 14.209 23.3559 15.3369 23.0222 16.4055C22.6885 17.4741 22.1371 18.4597 21.4036 19.2983C20.6702 20.1369 19.7711 20.8098 18.7647 21.2734C17.7583 21.737 16.6671 21.981 15.5618 21.9894C14.4564 21.9979 13.3617 21.7707 12.3485 21.3225C11.3353 20.8743 10.4264 20.2152 9.68052 19.3879C8.93469 18.5606 8.36865 17.5836 8.0191 16.5202C7.66956 15.4568 7.54432 14.3308 7.6515 13.2152V13.2162ZM15.2338 13.9981C17.8388 13.9981 19.8581 13.8581 21.4061 13.6141C21.457 14.4293 21.3432 15.2465 21.0716 16.0155C20.8001 16.7845 20.3765 17.4892 19.8269 18.0863C19.2773 18.6835 18.6133 19.1606 17.8754 19.4883C17.1376 19.816 16.3415 19.9874 15.536 19.9922C14.7305 19.9969 13.9326 19.8347 13.1911 19.5156C12.4496 19.1966 11.7801 18.7273 11.2238 18.1366C10.6674 17.5459 10.2359 16.8462 9.95564 16.0804C9.67538 15.3146 9.55228 14.4988 9.59391 13.6831C11.0364 13.8851 12.8851 13.9981 15.2338 13.9981ZM23.8011 28.596C22.9092 27.185 21.6816 26.0242 20.2313 25.2205C18.7811 24.4167 17.1547 23.9959 15.502 23.9967C13.8486 23.9956 12.2215 24.4165 10.7706 25.2206C9.31977 26.0247 8.09182 27.1862 7.19992 28.598C6.8689 28.081 6.36053 27.7069 5.77319 27.5482L3.86825 27.0312C3.23686 26.8596 2.56408 26.9493 1.9979 27.2806C1.43172 27.6119 1.01851 28.1577 0.849141 28.798L0.0840109 31.6956C0.000213393 32.0127 -0.0211674 32.3434 0.0210897 32.6689C0.0633468 32.9944 0.168414 33.3082 0.330292 33.5925C0.492169 33.8768 0.707685 34.126 0.964535 34.3258C1.22138 34.5257 1.51453 34.6722 1.82724 34.7572L3.7312 35.2751C4.05145 35.3626 4.38585 35.3834 4.71426 35.3363C5.04266 35.2892 5.35826 35.1752 5.64205 35.0011C5.64283 35.2663 5.74747 35.5203 5.93293 35.7073C6.1184 35.8942 6.3695 35.9988 6.631 35.998C6.8925 35.9972 7.14298 35.8911 7.32734 35.703C7.51169 35.5149 7.61482 35.2603 7.61403 34.9951V33.9953C7.61403 33.6143 7.64066 33.2394 7.69094 32.8724L12.822 34.2672C13.0602 34.7842 13.4389 35.2216 13.9136 35.528C14.3882 35.8344 14.9393 35.9972 15.502 35.9972C16.0647 35.9972 16.6157 35.8344 17.0904 35.528C17.5651 35.2216 17.9437 34.7842 18.1819 34.2672L23.313 32.8724C23.3633 33.2394 23.3899 33.6143 23.3899 33.9953V34.9951C23.3886 35.2603 23.4912 35.5152 23.6752 35.7036C23.8592 35.892 24.1095 35.9987 24.371 36C24.6325 36.0013 24.8838 35.8972 25.0696 35.7107C25.2555 35.5241 25.3606 35.2703 25.3619 35.0051C25.914 35.3411 26.5964 35.4581 27.2678 35.2751L29.1728 34.7582C29.4855 34.6732 29.7786 34.5267 30.0355 34.3268C30.2923 34.127 30.5078 33.8778 30.6697 33.5935C30.8316 33.3092 30.9367 32.9954 30.9789 32.6699C31.0212 32.3444 30.9998 32.0137 30.916 31.6966L30.1499 28.799C29.9805 28.1587 29.5673 27.6129 29.0011 27.2816C28.4349 26.9503 27.7622 26.8606 27.1308 27.0322L25.2258 27.5492C24.6398 27.7074 24.1323 28.0799 23.8011 28.595V28.596ZM8.20859 30.9427C8.74121 29.6364 9.60534 28.4964 10.7132 27.6386C11.821 26.7807 13.1331 26.2355 14.516 26.0584V30.1668C14.0741 30.3257 13.6757 30.5887 13.3535 30.934C13.0312 31.2794 12.7944 31.6973 12.6623 32.1535L8.20859 30.9437V30.9427ZM22.7954 30.9427C22.2626 29.6365 21.3985 28.4966 20.2907 27.6387C19.1829 26.7808 17.8709 26.2356 16.488 26.0584V30.1668C17.3793 30.4868 18.0754 31.2267 18.3416 32.1535L22.7954 30.9437V30.9427ZM15.502 33.9953C15.7635 33.9953 16.0143 33.8899 16.1992 33.7024C16.3841 33.5149 16.488 33.2606 16.488 32.9954C16.488 32.7302 16.3841 32.4759 16.1992 32.2884C16.0143 32.1009 15.7635 31.9955 15.502 31.9955C15.2405 31.9955 14.9897 32.1009 14.8048 32.2884C14.6199 32.4759 14.516 32.7302 14.516 32.9954C14.516 33.2606 14.6199 33.5149 14.8048 33.7024C14.9897 33.8899 15.2405 33.9953 15.502 33.9953Z" fill="white"/>
</svg>
