<svg width="34" height="27" viewBox="0 0 34 27" fill="none" xmlns="http://www.w3.org/2000/svg">
<g clip-path="url(#clip0_226_2704)">
<path d="M34 3.28756C32.7268 3.83619 31.3764 4.19631 29.9936 4.35594C31.4339 3.51623 32.5399 2.18651 33.0606 0.602163C31.6914 1.39251 30.1933 1.94936 28.6312 2.24865C27.3587 0.930038 25.546 0.105957 23.5396 0.105957C19.6872 0.105957 16.5638 3.14391 16.5638 6.89084C16.5638 7.4227 16.6256 7.94048 16.7445 8.4372C10.9472 8.15415 5.80736 5.45299 2.36685 1.34796C1.76654 2.35006 1.42255 3.51571 1.42255 4.759C1.42255 7.11304 2.65412 9.18971 4.52572 10.4065C3.418 10.3728 2.33464 10.0818 1.36611 9.55777C1.36571 9.58619 1.36571 9.61461 1.36571 9.64316C1.36571 12.9306 3.77015 15.6729 6.9611 16.2963C5.93391 16.568 4.85646 16.6078 3.81105 16.4125C4.69864 19.1081 7.27481 21.0697 10.3271 21.1246C7.9398 22.9443 4.93199 24.0291 1.66401 24.0291C1.10088 24.0291 0.545727 23.997 0 23.9343C3.08696 25.8594 6.75352 26.9827 10.6927 26.9827C23.5234 26.9827 30.5394 16.6438 30.5394 7.67771C30.5394 7.38343 30.5328 7.09082 30.5193 6.79989C31.8849 5.83963 33.0636 4.65024 34 3.28756Z" fill="#55ACEE"/>
</g>
<defs>
<clipPath id="clip0_226_2704">
<rect width="34" height="27" fill="white"/>
</clipPath>
</defs>
</svg>
