<svg width="81" height="96" viewBox="0 0 81 96" fill="none" xmlns="http://www.w3.org/2000/svg">
<path d="M77.2325 40.3388V40.3391C77.2317 48.9252 74.2304 57.2411 68.7476 63.8511C63.6017 70.055 56.5731 74.3906 48.7497 76.218L43.7901 84.2956L40.8099 89.1494L37.8262 84.2977L32.9929 76.4385C24.9585 74.7999 17.6821 70.5261 12.3352 64.2716C6.63199 57.6002 3.49874 49.1136 3.5 40.3388H77.2325ZM77.2325 40.3388C77.2325 30.5676 73.3476 21.1972 66.4336 14.2888C59.5196 7.38056 50.1429 3.5 40.3662 3.5C30.5896 3.5 21.2129 7.38056 14.2989 14.2888C7.38498 21.1971 3.50015 30.5672 3.5 40.3382L77.2325 40.3388Z" stroke="#FDCD03" stroke-width="7"/>
</svg>
