<svg width="19" height="22" viewBox="0 0 19 22" fill="none" xmlns="http://www.w3.org/2000/svg">
<path d="M9.49951 21.3639C9.16664 21.3638 8.83956 21.2764 8.551 21.1107L1.29785 16.9255C1.00994 16.759 0.770735 16.5199 0.604296 16.2321C0.437856 15.9443 0.349947 15.618 0.349335 15.2856V6.91628C0.349978 6.58376 0.437869 6.2572 0.604296 5.96925C0.770722 5.68129 1.00992 5.44191 1.29785 5.27515L8.551 1.09111C8.83958 0.925374 9.16665 0.838033 9.49951 0.837891C9.83237 0.83798 10.1592 0.925324 10.4477 1.09111L17.7009 5.27515C17.9887 5.442 18.228 5.68131 18.3944 5.96925C18.5609 6.25718 18.6486 6.58378 18.6494 6.91628V15.2856C18.6487 15.618 18.5609 15.9442 18.3944 16.232C18.228 16.5197 17.9887 16.7589 17.7009 16.9255L10.4477 21.1107C10.1592 21.2765 9.83238 21.3639 9.49951 21.3639ZM5.88714 10.1286C5.81868 10.1276 5.75057 10.1406 5.68735 10.1669C5.62413 10.1932 5.56713 10.2322 5.51961 10.2815L4.7812 11.0182C4.73212 11.066 4.69333 11.1234 4.66723 11.1868C4.64113 11.2501 4.6282 11.318 4.62933 11.3865C4.62806 11.455 4.64084 11.5231 4.66695 11.5864C4.69306 11.6498 4.73201 11.7071 4.7812 11.7549L7.41774 14.3893L8.15504 15.1271C8.20303 15.1759 8.26026 15.2146 8.32362 15.2407C8.38698 15.2667 8.45517 15.2796 8.52369 15.2787C8.59222 15.2797 8.6601 15.2669 8.72348 15.2408C8.78685 15.2147 8.84439 15.176 8.89234 15.1271L9.62963 14.3893L15.5737 8.45008C15.6227 8.4022 15.6613 8.34483 15.6874 8.2815C15.7135 8.21816 15.7264 8.15021 15.7253 8.08173C15.7263 8.01326 15.7135 7.94529 15.6874 7.88197C15.6613 7.81865 15.6227 7.7613 15.5737 7.71339L14.8364 6.9767C14.7887 6.9274 14.7312 6.88841 14.6678 6.86213C14.6044 6.83584 14.5364 6.82279 14.4678 6.82385C14.399 6.82283 14.3304 6.83585 14.2669 6.86213C14.2033 6.8884 14.1457 6.92742 14.0977 6.9767L8.5223 12.5532L6.25468 10.2826C6.20731 10.2334 6.15021 10.1944 6.08721 10.1679C6.02421 10.1414 5.95659 10.1281 5.88826 10.1286H5.88714Z" fill="#FDCD03"/>
</svg>
