<svg width="21" height="21" viewBox="0 0 21 21" fill="none" xmlns="http://www.w3.org/2000/svg">
<path d="M16.9388 6.32683V4.69418C16.9388 3.79377 16.2065 3.06152 15.3061 3.06152H4.69388C3.34368 3.06152 2.2449 4.1603 2.2449 5.5105V15.3064C2.2449 17.1032 3.70939 17.7554 4.69388 17.7554H16.9388C17.8392 17.7554 18.5714 17.0232 18.5714 16.1227V7.95948C18.5714 7.05907 17.8392 6.32683 16.9388 6.32683ZM15.3061 13.6738H13.6735V10.4085H15.3061V13.6738ZM4.69388 6.32683C4.4837 6.31743 4.28523 6.22731 4.13982 6.07525C3.99441 5.92319 3.91326 5.7209 3.91326 5.5105C3.91326 5.30011 3.99441 5.09782 4.13982 4.94575C4.28523 4.79369 4.4837 4.70358 4.69388 4.69418H15.3061V6.32683H4.69388Z" fill="black"/>
</svg>
