<svg width="21" height="22" viewBox="0 0 21 22" fill="none" xmlns="http://www.w3.org/2000/svg">
<path d="M2.70152 21.2259C2.39821 21.2319 2.09671 21.1758 1.81599 21.0608C1.53527 20.9459 1.28108 20.7745 1.06922 20.5576C0.852076 20.3459 0.680741 20.092 0.565704 19.8116C0.450667 19.5311 0.394444 19.23 0.400467 18.9269V2.99673C0.394308 2.69364 0.45038 2.39257 0.565425 2.11206C0.68047 1.83155 0.851966 1.57751 1.06922 1.3659C1.28108 1.14894 1.53527 0.977746 1.81599 0.862804C2.09671 0.747861 2.39821 0.691685 2.70152 0.697703H18.6459C18.9492 0.69182 19.2505 0.748009 19.5312 0.862943C19.8119 0.977877 20.066 1.14905 20.2779 1.3659C20.4947 1.57782 20.6658 1.83188 20.7806 2.11234C20.8954 2.39279 20.9515 2.69377 20.9456 2.99673V18.9269C20.9514 19.2298 20.8952 19.5307 20.7803 19.8111C20.6655 20.0916 20.4946 20.3456 20.2779 20.5576C20.066 20.7744 19.8119 20.9456 19.5312 21.0605C19.2505 21.1755 18.9492 21.2318 18.6459 21.2259H2.70152ZM2.70152 18.9269H18.6459V2.99673H2.70152V18.9269ZM10.7148 12.226L8.472 14.4668L7.24847 13.2432L9.49129 11.0023L7.24847 8.76134L8.472 7.53895L10.7148 9.77979L12.9975 7.53895L14.2196 8.76134L11.937 11.0023L14.2196 13.2432L12.9975 14.4657L10.7148 12.226Z" fill="#EB001B"/>
</svg>
