<svg width="411" height="257" viewBox="0 0 411 257" fill="none" xmlns="http://www.w3.org/2000/svg">
<g filter="url(#filter0_d_2201_2806)">
<rect x="37" y="11" width="365" height="212" rx="15" fill="#FDCD03"/>
</g>
<path d="M54.8011 180.364H56.5511V188.614C56.5511 189.36 56.4034 189.998 56.108 190.528C55.8163 191.059 55.4053 191.464 54.875 191.744C54.3447 192.021 53.7235 192.159 53.0114 192.159C52.3561 192.159 51.767 192.04 51.2443 191.801C50.7254 191.562 50.3144 191.216 50.0114 190.761C49.7121 190.303 49.5625 189.746 49.5625 189.091H51.3068C51.3068 189.413 51.3807 189.691 51.5284 189.926C51.6799 190.161 51.8864 190.345 52.1477 190.477C52.4129 190.606 52.7159 190.67 53.0568 190.67C53.428 190.67 53.7424 190.593 54 190.438C54.2614 190.278 54.4602 190.045 54.5966 189.739C54.733 189.432 54.8011 189.057 54.8011 188.614V180.364ZM60.0895 192H58.2259L62.4134 180.364H64.4418L68.6293 192H66.7656L63.4759 182.477H63.3849L60.0895 192ZM60.402 187.443H66.4474V188.92H60.402V187.443ZM70.3097 192V180.364H72.0653V185.92H72.2074L77.0881 180.364H79.2983L74.6051 185.602L79.3153 192H77.2017L73.4403 186.801L72.0653 188.381V192H70.3097ZM80.9347 192V180.364H88.2301V181.875H82.6903V185.42H87.8494V186.926H82.6903V190.489H88.2983V192H80.9347ZM94.2358 181.875V180.364H103.241V181.875H99.6108V192H97.8608V181.875H94.2358ZM112.714 180.364H114.476V188.017C114.476 188.831 114.285 189.553 113.902 190.182C113.519 190.807 112.982 191.299 112.288 191.659C111.595 192.015 110.783 192.193 109.851 192.193C108.923 192.193 108.112 192.015 107.419 191.659C106.726 191.299 106.188 190.807 105.805 190.182C105.423 189.553 105.232 188.831 105.232 188.017V180.364H106.987V187.875C106.987 188.402 107.103 188.869 107.334 189.278C107.569 189.688 107.9 190.009 108.328 190.244C108.756 190.475 109.264 190.591 109.851 190.591C110.442 190.591 110.951 190.475 111.379 190.244C111.811 190.009 112.141 189.688 112.368 189.278C112.599 188.869 112.714 188.402 112.714 187.875V180.364ZM126.693 184.148H124.92C124.852 183.769 124.725 183.436 124.54 183.148C124.354 182.86 124.127 182.616 123.858 182.415C123.589 182.214 123.288 182.062 122.955 181.96C122.625 181.858 122.275 181.807 121.903 181.807C121.233 181.807 120.633 181.975 120.102 182.312C119.576 182.65 119.159 183.144 118.852 183.795C118.549 184.447 118.398 185.242 118.398 186.182C118.398 187.129 118.549 187.928 118.852 188.58C119.159 189.231 119.578 189.723 120.108 190.057C120.638 190.39 121.235 190.557 121.898 190.557C122.265 190.557 122.614 190.508 122.943 190.409C123.277 190.307 123.578 190.157 123.847 189.96C124.116 189.763 124.343 189.523 124.528 189.239C124.718 188.951 124.848 188.621 124.92 188.25L126.693 188.256C126.598 188.828 126.415 189.354 126.142 189.835C125.873 190.312 125.527 190.725 125.102 191.074C124.682 191.419 124.201 191.686 123.659 191.875C123.117 192.064 122.527 192.159 121.886 192.159C120.879 192.159 119.981 191.92 119.193 191.443C118.405 190.962 117.784 190.275 117.33 189.381C116.879 188.487 116.653 187.42 116.653 186.182C116.653 184.939 116.881 183.873 117.335 182.983C117.79 182.089 118.411 181.403 119.199 180.926C119.987 180.445 120.883 180.205 121.886 180.205C122.504 180.205 123.08 180.294 123.614 180.472C124.152 180.646 124.634 180.903 125.062 181.244C125.491 181.581 125.845 181.994 126.125 182.483C126.405 182.968 126.595 183.523 126.693 184.148ZM128.794 192V180.364H130.55V185.42H136.351V180.364H138.112V192H136.351V186.926H130.55V192H128.794ZM140.669 192V180.364H147.964V181.875H142.425V185.42H147.584V186.926H142.425V190.489H148.033V192H140.669ZM150.31 192V180.364H152.065V190.489H157.338V192H150.31Z" fill="white"/>
<path opacity="0.2" d="M232.871 134.781L236.289 140.23L239.707 134.781H241.904L237.412 141.822L242.012 149H239.795L236.289 143.443L232.783 149H230.566L235.166 141.822L230.674 134.781H232.871ZM245.81 134.781L249.228 140.23L252.646 134.781H254.843L250.351 141.822L254.951 149H252.734L249.228 143.443L245.722 149H243.505L248.105 141.822L243.613 134.781H245.81ZM258.749 134.781L262.167 140.23L265.585 134.781H267.782L263.29 141.822L267.89 149H265.673L262.167 143.443L258.661 149H256.445L261.044 141.822L256.552 134.781H258.749Z" fill="white"/>
<path opacity="0.6" d="M240.958 120H240.077C240.025 119.747 239.934 119.524 239.804 119.332C239.676 119.141 239.52 118.98 239.335 118.849C239.153 118.717 238.95 118.617 238.728 118.551C238.505 118.485 238.273 118.452 238.032 118.452C237.591 118.452 237.192 118.563 236.835 118.786C236.48 119.008 236.197 119.336 235.986 119.769C235.778 120.202 235.674 120.734 235.674 121.364C235.674 121.993 235.778 122.525 235.986 122.958C236.197 123.391 236.48 123.719 236.835 123.942C237.192 124.164 237.591 124.276 238.032 124.276C238.273 124.276 238.505 124.242 238.728 124.176C238.95 124.11 239.153 124.012 239.335 123.881C239.52 123.749 239.676 123.587 239.804 123.395C239.934 123.201 240.025 122.978 240.077 122.727H240.958C240.892 123.099 240.771 123.432 240.596 123.725C240.42 124.019 240.203 124.268 239.942 124.474C239.682 124.678 239.389 124.833 239.065 124.94C238.743 125.046 238.399 125.099 238.032 125.099C237.411 125.099 236.86 124.948 236.377 124.645C235.894 124.342 235.514 123.911 235.237 123.352C234.96 122.794 234.822 122.131 234.822 121.364C234.822 120.597 234.96 119.934 235.237 119.375C235.514 118.816 235.894 118.385 236.377 118.082C236.86 117.779 237.411 117.628 238.032 117.628C238.399 117.628 238.743 117.681 239.065 117.788C239.389 117.894 239.682 118.05 239.942 118.256C240.203 118.46 240.42 118.709 240.596 119.002C240.771 119.293 240.892 119.626 240.958 120ZM242.679 117.727L244.838 123.849H244.924L247.083 117.727H248.006L245.336 125H244.426L241.756 117.727H242.679ZM249.437 117.727L251.596 123.849H251.681L253.841 117.727H254.764L252.093 125H251.184L248.514 117.727H249.437Z" fill="white"/>
<path d="M59.1705 145.193C58.2727 145.189 57.5057 144.953 56.8693 144.483C56.233 144.013 55.7462 143.33 55.4091 142.432C55.072 141.534 54.9034 140.453 54.9034 139.188C54.9034 137.926 55.072 136.848 55.4091 135.955C55.75 135.061 56.2386 134.379 56.875 133.909C57.5152 133.439 58.2803 133.205 59.1705 133.205C60.0606 133.205 60.8239 133.441 61.4602 133.915C62.0966 134.384 62.5833 135.066 62.9205 135.96C63.2614 136.85 63.4318 137.926 63.4318 139.188C63.4318 140.456 63.2633 141.54 62.9261 142.438C62.589 143.331 62.1023 144.015 61.4659 144.489C60.8295 144.958 60.0644 145.193 59.1705 145.193ZM59.1705 143.676C59.9583 143.676 60.5739 143.292 61.017 142.523C61.464 141.754 61.6875 140.642 61.6875 139.188C61.6875 138.222 61.5852 137.405 61.3807 136.739C61.1799 136.068 60.8902 135.561 60.5114 135.216C60.1364 134.867 59.6894 134.693 59.1705 134.693C58.3864 134.693 57.7708 135.08 57.3239 135.852C56.8769 136.625 56.6515 137.737 56.6477 139.188C56.6477 140.157 56.7481 140.977 56.9489 141.648C57.1534 142.314 57.4432 142.82 57.8182 143.165C58.1932 143.506 58.6439 143.676 59.1705 143.676ZM69.8622 133.364V145H68.1009V135.125H68.0327L65.2486 136.943V135.261L68.152 133.364H69.8622ZM77.4645 132.818L73.7145 146.75H72.1974L75.9474 132.818H77.4645ZM78.8849 145V143.727L82.8224 139.648C83.2429 139.205 83.5895 138.816 83.8622 138.483C84.1387 138.146 84.3452 137.826 84.4815 137.523C84.6179 137.22 84.6861 136.898 84.6861 136.557C84.6861 136.17 84.5952 135.837 84.4134 135.557C84.2315 135.273 83.9834 135.055 83.669 134.903C83.3546 134.748 83.0005 134.67 82.6065 134.67C82.1899 134.67 81.8262 134.756 81.5156 134.926C81.205 135.097 80.9664 135.337 80.7997 135.648C80.633 135.958 80.5497 136.322 80.5497 136.739H78.8736C78.8736 136.03 79.0365 135.411 79.3622 134.881C79.688 134.35 80.1349 133.939 80.7031 133.648C81.2713 133.352 81.9171 133.205 82.6406 133.205C83.3717 133.205 84.0156 133.35 84.5724 133.642C85.133 133.93 85.5705 134.324 85.8849 134.824C86.1993 135.32 86.3565 135.881 86.3565 136.506C86.3565 136.938 86.2751 137.36 86.1122 137.773C85.9531 138.186 85.6747 138.646 85.277 139.153C84.8793 139.657 84.3262 140.269 83.6179 140.989L81.3054 143.409V143.494H86.544V145H78.8849ZM92.7486 145.159C91.9683 145.159 91.2713 145.025 90.6577 144.756C90.0478 144.487 89.5649 144.114 89.2088 143.636C88.8565 143.155 88.6671 142.598 88.6406 141.966H90.4247C90.4474 142.311 90.563 142.61 90.7713 142.864C90.9834 143.114 91.2599 143.307 91.6009 143.443C91.9418 143.58 92.3205 143.648 92.7372 143.648C93.1955 143.648 93.6009 143.568 93.9531 143.409C94.3092 143.25 94.5876 143.028 94.7884 142.744C94.9891 142.456 95.0895 142.125 95.0895 141.75C95.0895 141.36 94.9891 141.017 94.7884 140.722C94.5914 140.422 94.3016 140.187 93.919 140.017C93.5402 139.847 93.0819 139.761 92.544 139.761H91.5611V138.33H92.544C92.9759 138.33 93.3546 138.252 93.6804 138.097C94.0099 137.941 94.2675 137.725 94.4531 137.449C94.6387 137.169 94.7315 136.841 94.7315 136.466C94.7315 136.106 94.6501 135.794 94.4872 135.528C94.3281 135.259 94.1009 135.049 93.8054 134.898C93.5137 134.746 93.169 134.67 92.7713 134.67C92.3925 134.67 92.0384 134.741 91.7088 134.881C91.383 135.017 91.1179 135.214 90.9134 135.472C90.7088 135.725 90.599 136.03 90.5838 136.386H88.8849C88.9039 135.758 89.0895 135.205 89.4418 134.727C89.7978 134.25 90.2675 133.877 90.8509 133.608C91.4342 133.339 92.0819 133.205 92.794 133.205C93.5402 133.205 94.1842 133.35 94.7259 133.642C95.2713 133.93 95.6918 134.314 95.9872 134.795C96.2865 135.277 96.4342 135.803 96.4304 136.375C96.4342 137.027 96.2524 137.58 95.8849 138.034C95.5213 138.489 95.0365 138.794 94.4304 138.949V139.04C95.2031 139.157 95.8016 139.464 96.2259 139.96C96.6539 140.456 96.866 141.072 96.8622 141.807C96.866 142.447 96.688 143.021 96.3281 143.528C95.9721 144.036 95.4853 144.436 94.8679 144.727C94.2505 145.015 93.544 145.159 92.7486 145.159Z" fill="white"/>
<path opacity="0.6" d="M54.8807 115.727H55.9318L58.4034 121.764H58.4886L60.9602 115.727H62.0114V123H61.1875V117.474H61.1165L58.8438 123H58.0483L55.7756 117.474H55.7045V123H54.8807V115.727ZM69.9135 119.364C69.9135 120.131 69.775 120.794 69.498 121.352C69.2211 121.911 68.8411 122.342 68.3581 122.645C67.8752 122.948 67.3236 123.099 66.7033 123.099C66.083 123.099 65.5314 122.948 65.0485 122.645C64.5655 122.342 64.1855 121.911 63.9086 121.352C63.6316 120.794 63.4931 120.131 63.4931 119.364C63.4931 118.597 63.6316 117.934 63.9086 117.375C64.1855 116.816 64.5655 116.385 65.0485 116.082C65.5314 115.779 66.083 115.628 66.7033 115.628C67.3236 115.628 67.8752 115.779 68.3581 116.082C68.8411 116.385 69.2211 116.816 69.498 117.375C69.775 117.934 69.9135 118.597 69.9135 119.364ZM69.0613 119.364C69.0613 118.734 68.9559 118.202 68.7452 117.769C68.5369 117.336 68.254 117.008 67.8965 116.786C67.5414 116.563 67.1436 116.452 66.7033 116.452C66.263 116.452 65.8641 116.563 65.5066 116.786C65.1515 117.008 64.8685 117.336 64.6578 117.769C64.4495 118.202 64.3453 118.734 64.3453 119.364C64.3453 119.993 64.4495 120.525 64.6578 120.958C64.8685 121.391 65.1515 121.719 65.5066 121.942C65.8641 122.164 66.263 122.276 66.7033 122.276C67.1436 122.276 67.5414 122.164 67.8965 121.942C68.254 121.719 68.5369 121.391 68.7452 120.958C68.9559 120.525 69.0613 119.993 69.0613 119.364ZM77.1614 115.727V123H76.3091L72.3461 117.29H72.275V123H71.3944V115.727H72.2466L76.2239 121.452H76.2949V115.727H77.1614ZM78.5259 116.509V115.727H83.9805V116.509H81.6935V123H80.8129V116.509H78.5259ZM85.3397 123V115.727H86.2203V118.966H90.0982V115.727H90.9789V123H90.0982V119.747H86.2203V123H85.3397ZM95.1994 115.386L92.8556 124.094H92.0886L94.4324 115.386H95.1994ZM95.6815 115.727H96.69L98.707 119.122H98.7923L100.809 115.727H101.818L99.19 120.003V123H98.3093V120.003L95.6815 115.727ZM102.957 123V115.727H107.346V116.509H103.838V118.966H107.119V119.747H103.838V122.219H107.403V123H102.957ZM109.232 123H108.308L110.979 115.727H111.888L114.558 123H113.635L111.462 116.878H111.405L109.232 123ZM109.573 120.159H113.294V120.94H109.573V120.159ZM115.691 123V115.727H118.149C118.717 115.727 119.183 115.824 119.548 116.018C119.912 116.21 120.182 116.474 120.357 116.81C120.533 117.147 120.62 117.529 120.62 117.957C120.62 118.386 120.533 118.766 120.357 119.097C120.182 119.429 119.914 119.689 119.551 119.879C119.189 120.066 118.726 120.159 118.163 120.159H116.174V119.364H118.134C118.523 119.364 118.835 119.307 119.072 119.193C119.311 119.08 119.484 118.919 119.59 118.71C119.699 118.5 119.754 118.249 119.754 117.957C119.754 117.666 119.699 117.412 119.59 117.194C119.481 116.976 119.307 116.808 119.068 116.69C118.829 116.569 118.513 116.509 118.12 116.509H116.572V123H115.691ZM119.115 119.733L120.904 123H119.882L118.12 119.733H119.115Z" fill="white"/>
<path d="M60.791 77.2148V78.6992H50.5176V77.6348L56.8848 67.7812H58.3594L56.7773 70.6328L52.5684 77.2148H60.791ZM58.8086 67.7812V82H57.002V67.7812H58.8086ZM64.6285 80.4863H64.8141C65.8557 80.4863 66.7021 80.3398 67.3531 80.0469C68.0042 79.7539 68.5055 79.36 68.857 78.8652C69.2086 78.3704 69.4495 77.8138 69.5797 77.1953C69.7099 76.5703 69.775 75.929 69.775 75.2715V73.0938C69.775 72.4492 69.7001 71.8763 69.5504 71.375C69.4072 70.8737 69.2053 70.4538 68.9449 70.1152C68.691 69.7767 68.4013 69.5195 68.0758 69.3438C67.7503 69.168 67.4052 69.0801 67.0406 69.0801C66.624 69.0801 66.2496 69.1647 65.9176 69.334C65.5921 69.4967 65.3154 69.7279 65.0875 70.0273C64.8661 70.3268 64.6969 70.6784 64.5797 71.082C64.4625 71.4857 64.4039 71.9251 64.4039 72.4004C64.4039 72.8236 64.456 73.2337 64.5602 73.6309C64.6643 74.028 64.8238 74.3861 65.0387 74.7051C65.2535 75.0241 65.5204 75.278 65.8395 75.4668C66.165 75.6491 66.5458 75.7402 66.982 75.7402C67.3857 75.7402 67.7633 75.6621 68.1148 75.5059C68.4729 75.3431 68.7887 75.125 69.0621 74.8516C69.3421 74.5716 69.5634 74.2559 69.7262 73.9043C69.8954 73.5527 69.9931 73.1849 70.0191 72.8008H70.8785C70.8785 73.3411 70.7711 73.875 70.5562 74.4023C70.3479 74.9232 70.0549 75.3984 69.6773 75.8281C69.2997 76.2578 68.857 76.6029 68.3492 76.8633C67.8414 77.1172 67.288 77.2441 66.6891 77.2441C65.9859 77.2441 65.3772 77.1074 64.8629 76.834C64.3486 76.5605 63.9254 76.196 63.5934 75.7402C63.2678 75.2845 63.0237 74.7767 62.8609 74.2168C62.7047 73.6504 62.6266 73.0775 62.6266 72.498C62.6266 71.821 62.721 71.1862 62.9098 70.5938C63.0986 70.0013 63.3785 69.4805 63.7496 69.0312C64.1207 68.5755 64.5797 68.2207 65.1266 67.9668C65.6799 67.7129 66.318 67.5859 67.0406 67.5859C67.8544 67.5859 68.5478 67.7487 69.1207 68.0742C69.6936 68.3997 70.1591 68.8359 70.5172 69.3828C70.8818 69.9297 71.1487 70.5449 71.318 71.2285C71.4872 71.9121 71.5719 72.6152 71.5719 73.3379V73.9922C71.5719 74.7279 71.523 75.4766 71.4254 76.2383C71.3342 76.9935 71.1552 77.7161 70.8883 78.4062C70.6279 79.0964 70.247 79.7148 69.7457 80.2617C69.2444 80.8021 68.5901 81.2318 67.7828 81.5508C66.982 81.8633 65.9924 82.0195 64.8141 82.0195H64.6285V80.4863ZM76.7668 75.2324L75.3215 74.8613L76.0344 67.7812H83.3293V69.4512H77.5676L77.1379 73.3184C77.3983 73.1686 77.7271 73.0286 78.1242 72.8984C78.5279 72.7682 78.9901 72.7031 79.5109 72.7031C80.1685 72.7031 80.7577 72.8171 81.2785 73.0449C81.7993 73.2663 82.2421 73.5853 82.6066 74.002C82.9777 74.4186 83.2609 74.9199 83.4562 75.5059C83.6516 76.0918 83.7492 76.7461 83.7492 77.4688C83.7492 78.1523 83.6548 78.7806 83.466 79.3535C83.2837 79.9264 83.007 80.4277 82.6359 80.8574C82.2648 81.2806 81.7961 81.6094 81.2297 81.8438C80.6698 82.0781 80.009 82.1953 79.2473 82.1953C78.6743 82.1953 78.1307 82.1172 77.6164 81.9609C77.1086 81.7982 76.6529 81.554 76.2492 81.2285C75.8521 80.8965 75.5266 80.4863 75.2727 79.998C75.0253 79.5033 74.869 78.9238 74.8039 78.2598H76.5227C76.6008 78.7936 76.757 79.2428 76.9914 79.6074C77.2258 79.972 77.5318 80.2487 77.9094 80.4375C78.2935 80.6198 78.7395 80.7109 79.2473 80.7109C79.677 80.7109 80.0578 80.6361 80.3898 80.4863C80.7219 80.3366 81.0018 80.1217 81.2297 79.8418C81.4576 79.5618 81.6301 79.2233 81.7473 78.8262C81.871 78.429 81.9328 77.9831 81.9328 77.4883C81.9328 77.0391 81.871 76.6224 81.7473 76.2383C81.6236 75.8542 81.438 75.5189 81.1906 75.2324C80.9497 74.946 80.6535 74.7246 80.302 74.5684C79.9504 74.4056 79.5467 74.3242 79.091 74.3242C78.4855 74.3242 78.0266 74.4056 77.7141 74.5684C77.4081 74.7311 77.0923 74.9525 76.7668 75.2324ZM95.0574 73.7578V75.9258C95.0574 77.0911 94.9533 78.0742 94.7449 78.875C94.5366 79.6758 94.2371 80.3203 93.8465 80.8086C93.4559 81.2969 92.9839 81.6517 92.4305 81.873C91.8836 82.0879 91.2651 82.1953 90.575 82.1953C90.0281 82.1953 89.5236 82.127 89.0613 81.9902C88.5991 81.8535 88.1824 81.6354 87.8113 81.3359C87.4467 81.0299 87.1342 80.6328 86.8738 80.1445C86.6134 79.6562 86.4148 79.0638 86.2781 78.3672C86.1414 77.6706 86.073 76.8568 86.073 75.9258V73.7578C86.073 72.5924 86.1772 71.6159 86.3855 70.8281C86.6004 70.0404 86.9031 69.4089 87.2938 68.9336C87.6844 68.4518 88.1531 68.1068 88.7 67.8984C89.2534 67.6901 89.8719 67.5859 90.5555 67.5859C91.1089 67.5859 91.6167 67.6543 92.0789 67.791C92.5477 67.9212 92.9643 68.1328 93.3289 68.4258C93.6935 68.7122 94.0027 69.0964 94.2566 69.5781C94.5171 70.0534 94.7156 70.6361 94.8523 71.3262C94.9891 72.0163 95.0574 72.8268 95.0574 73.7578ZM93.241 76.2188V73.4551C93.241 72.8171 93.202 72.2572 93.1238 71.7754C93.0522 71.2871 92.9448 70.8704 92.8016 70.5254C92.6583 70.1803 92.476 69.9004 92.2547 69.6855C92.0398 69.4707 91.7892 69.3145 91.5027 69.2168C91.2228 69.1126 90.907 69.0605 90.5555 69.0605C90.1258 69.0605 89.7449 69.1419 89.4129 69.3047C89.0809 69.4609 88.8009 69.7116 88.573 70.0566C88.3517 70.4017 88.1824 70.8542 88.0652 71.4141C87.948 71.974 87.8895 72.6543 87.8895 73.4551V76.2188C87.8895 76.8568 87.9253 77.4199 87.9969 77.9082C88.075 78.3965 88.1889 78.8197 88.3387 79.1777C88.4884 79.5293 88.6707 79.819 88.8855 80.0469C89.1004 80.2747 89.3478 80.444 89.6277 80.5547C89.9142 80.6589 90.2299 80.7109 90.575 80.7109C91.0177 80.7109 91.4051 80.6263 91.7371 80.457C92.0691 80.2878 92.3458 80.0241 92.5672 79.666C92.7951 79.3014 92.9643 78.8359 93.075 78.2695C93.1857 77.6966 93.241 77.013 93.241 76.2188ZM112.752 77.2148V78.6992H102.479V77.6348L108.846 67.7812H110.32L108.738 70.6328L104.529 77.2148H112.752ZM110.77 67.7812V82H108.963V67.7812H110.77ZM117.078 75.2324L115.632 74.8613L116.345 67.7812H123.64V69.4512H117.879L117.449 73.3184C117.709 73.1686 118.038 73.0286 118.435 72.8984C118.839 72.7682 119.301 72.7031 119.822 72.7031C120.479 72.7031 121.069 72.8171 121.589 73.0449C122.11 73.2663 122.553 73.5853 122.918 74.002C123.289 74.4186 123.572 74.9199 123.767 75.5059C123.963 76.0918 124.06 76.7461 124.06 77.4688C124.06 78.1523 123.966 78.7806 123.777 79.3535C123.595 79.9264 123.318 80.4277 122.947 80.8574C122.576 81.2806 122.107 81.6094 121.541 81.8438C120.981 82.0781 120.32 82.1953 119.558 82.1953C118.985 82.1953 118.442 82.1172 117.927 81.9609C117.42 81.7982 116.964 81.554 116.56 81.2285C116.163 80.8965 115.838 80.4863 115.584 79.998C115.336 79.5033 115.18 78.9238 115.115 78.2598H116.834C116.912 78.7936 117.068 79.2428 117.302 79.6074C117.537 79.972 117.843 80.2487 118.22 80.4375C118.604 80.6198 119.05 80.7109 119.558 80.7109C119.988 80.7109 120.369 80.6361 120.701 80.4863C121.033 80.3366 121.313 80.1217 121.541 79.8418C121.768 79.5618 121.941 79.2233 122.058 78.8262C122.182 78.429 122.244 77.9831 122.244 77.4883C122.244 77.0391 122.182 76.6224 122.058 76.2383C121.935 75.8542 121.749 75.5189 121.502 75.2324C121.261 74.946 120.964 74.7246 120.613 74.5684C120.261 74.4056 119.858 74.3242 119.402 74.3242C118.796 74.3242 118.338 74.4056 118.025 74.5684C117.719 74.7311 117.403 74.9525 117.078 75.2324Z" fill="white"/>
<path opacity="0.2" d="M157.437 67.7812L160.855 73.2305L164.273 67.7812H166.47L161.978 74.8223L166.577 82H164.36L160.855 76.4434L157.349 82H155.132L159.732 74.8223L155.239 67.7812H157.437ZM170.376 67.7812L173.794 73.2305L177.212 67.7812H179.409L174.917 74.8223L179.516 82H177.3L173.794 76.4434L170.288 82H168.071L172.671 74.8223L168.178 67.7812H170.376ZM188.676 67.7812L192.094 73.2305L195.512 67.7812H197.709L193.217 74.8223L197.816 82H195.6L192.094 76.4434L188.588 82H186.371L190.971 74.8223L186.478 67.7812H188.676ZM201.615 67.7812L205.033 73.2305L208.451 67.7812H210.648L206.156 74.8223L210.755 82H208.539L205.033 76.4434L201.527 82H199.31L203.91 74.8223L199.418 67.7812H201.615ZM214.554 67.7812L217.972 73.2305L221.39 67.7812H223.587L219.095 74.8223L223.694 82H221.478L217.972 76.4434L214.466 82H212.249L216.849 74.8223L212.357 67.7812H214.554ZM227.493 67.7812L230.911 73.2305L234.329 67.7812H236.526L232.034 74.8223L236.634 82H234.417L230.911 76.4434L227.405 82H225.188L229.788 74.8223L225.296 67.7812H227.493ZM245.793 67.7812L249.211 73.2305L252.629 67.7812H254.826L250.334 74.8223L254.934 82H252.717L249.211 76.4434L245.705 82H243.488L248.088 74.8223L243.596 67.7812H245.793ZM258.732 67.7812L262.15 73.2305L265.568 67.7812H267.765L263.273 74.8223L267.873 82H265.656L262.15 76.4434L258.644 82H256.427L261.027 74.8223L256.535 67.7812H258.732ZM271.671 67.7812L275.089 73.2305L278.507 67.7812H280.704L276.212 74.8223L280.812 82H278.595L275.089 76.4434L271.583 82H269.366L273.966 74.8223L269.474 67.7812H271.671ZM284.61 67.7812L288.028 73.2305L291.446 67.7812H293.643L289.151 74.8223L293.751 82H291.534L288.028 76.4434L284.522 82H282.305L286.905 74.8223L282.413 67.7812H284.61Z" fill="white"/>
<path opacity="0.6" d="M62.014 52H61.1333C61.0813 51.7467 60.9901 51.5241 60.8599 51.3324C60.7321 51.1406 60.5758 50.9796 60.3912 50.8494C60.2089 50.7169 60.0064 50.6174 59.7839 50.5511C59.5614 50.4848 59.3294 50.4517 59.0879 50.4517C58.6475 50.4517 58.2486 50.563 57.8912 50.7855C57.536 51.008 57.2531 51.3359 57.0424 51.7692C56.8341 52.2024 56.7299 52.7339 56.7299 53.3636C56.7299 53.9934 56.8341 54.5249 57.0424 54.9581C57.2531 55.3913 57.536 55.7192 57.8912 55.9418C58.2486 56.1643 58.6475 56.2756 59.0879 56.2756C59.3294 56.2756 59.5614 56.2424 59.7839 56.1761C60.0064 56.1098 60.2089 56.0116 60.3912 55.8814C60.5758 55.7488 60.7321 55.5866 60.8599 55.3949C60.9901 55.2008 61.0813 54.9782 61.1333 54.7273H62.014C61.9477 55.099 61.827 55.4316 61.6518 55.7251C61.4766 56.0187 61.2588 56.2685 60.9984 56.4744C60.738 56.678 60.4456 56.8331 60.1213 56.9396C59.7993 57.0462 59.4548 57.0994 59.0879 57.0994C58.4676 57.0994 57.916 56.9479 57.4331 56.6449C56.9501 56.3419 56.5701 55.911 56.2931 55.3523C56.0162 54.7936 55.8777 54.1307 55.8777 53.3636C55.8777 52.5966 56.0162 51.9337 56.2931 51.375C56.5701 50.8163 56.9501 50.3854 57.4331 50.0824C57.916 49.7794 58.4676 49.6278 59.0879 49.6278C59.4548 49.6278 59.7993 49.6811 60.1213 49.7876C60.4456 49.8942 60.738 50.0504 60.9984 50.2564C61.2588 50.46 61.4766 50.7086 61.6518 51.0021C61.827 51.2933 61.9477 51.6259 62.014 52ZM63.7354 57H62.8121L65.4826 49.7273H66.3917L69.0621 57H68.1388L65.9655 50.8778H65.9087L63.7354 57ZM64.0763 54.1591H67.7979V54.9403H64.0763V54.1591ZM70.195 57V49.7273H72.6523C73.2205 49.7273 73.6869 49.8243 74.0515 50.0185C74.4161 50.2102 74.686 50.4742 74.8611 50.8104C75.0363 51.1465 75.1239 51.5289 75.1239 51.9574C75.1239 52.3859 75.0363 52.7659 74.8611 53.0973C74.686 53.4287 74.4173 53.6892 74.055 53.8786C73.6928 54.0656 73.23 54.1591 72.6665 54.1591H70.6779V53.3636H72.6381C73.0264 53.3636 73.3389 53.3068 73.5756 53.1932C73.8147 53.0795 73.9876 52.9186 74.0941 52.7102C74.203 52.4995 74.2575 52.2486 74.2575 51.9574C74.2575 51.6662 74.203 51.4117 74.0941 51.1939C73.9852 50.9761 73.8112 50.808 73.5721 50.6896C73.333 50.5689 73.0169 50.5085 72.6239 50.5085H71.0756V57H70.195ZM73.6182 53.733L75.408 57H74.3853L72.6239 53.733H73.6182ZM78.8358 57H76.5914V49.7273H78.9352C79.6407 49.7273 80.2444 49.8729 80.7463 50.1641C81.2482 50.4529 81.6329 50.8684 81.9004 51.4105C82.1679 51.9503 82.3017 52.5966 82.3017 53.3494C82.3017 54.107 82.1667 54.7592 81.8968 55.3061C81.6269 55.8506 81.234 56.2696 80.7179 56.5632C80.2018 56.8544 79.5744 57 78.8358 57ZM77.4721 56.2188H78.7789C79.3803 56.2188 79.8786 56.1027 80.274 55.8707C80.6693 55.6387 80.9641 55.3085 81.1582 54.88C81.3523 54.4515 81.4494 53.9413 81.4494 53.3494C81.4494 52.7623 81.3535 52.2569 81.1617 51.8331C80.97 51.407 80.6835 51.0803 80.3024 50.853C79.9212 50.6233 79.4466 50.5085 78.8784 50.5085H77.4721V56.2188ZM92.3585 49.7273V57H91.5062L87.5431 51.2898H87.4721V57H86.5914V49.7273H87.4437L91.421 55.4517H91.492V49.7273H92.3585ZM98.8935 49.7273H99.7741V54.5426C99.7741 55.0398 99.657 55.4837 99.4226 55.8743C99.1906 56.2625 98.8627 56.5691 98.4389 56.794C98.0151 57.0166 97.518 57.1278 96.9474 57.1278C96.3769 57.1278 95.8797 57.0166 95.456 56.794C95.0322 56.5691 94.7031 56.2625 94.4687 55.8743C94.2367 55.4837 94.1207 55.0398 94.1207 54.5426V49.7273H95.0014V54.4716C95.0014 54.8267 95.0795 55.1428 95.2358 55.4197C95.392 55.6944 95.6146 55.911 95.9034 56.0696C96.1946 56.2259 96.5426 56.304 96.9474 56.304C97.3523 56.304 97.7003 56.2259 97.9915 56.0696C98.2827 55.911 98.5052 55.6944 98.6591 55.4197C98.8153 55.1428 98.8935 54.8267 98.8935 54.4716V49.7273ZM101.533 49.7273H102.584L105.056 55.7642H105.141L107.612 49.7273H108.664V57H107.84V51.4744H107.769L105.496 57H104.7L102.428 51.4744H102.357V57H101.533V49.7273ZM110.429 57V49.7273H112.972C113.479 49.7273 113.896 49.8149 114.225 49.9901C114.555 50.1629 114.8 50.3961 114.961 50.6896C115.122 50.9808 115.202 51.304 115.202 51.6591C115.202 51.9716 115.146 52.2296 115.035 52.4332C114.926 52.6368 114.782 52.7978 114.602 52.9162C114.424 53.0346 114.231 53.1222 114.023 53.179V53.25C114.246 53.2642 114.469 53.3423 114.694 53.4844C114.919 53.6264 115.107 53.83 115.259 54.0952C115.41 54.3603 115.486 54.6847 115.486 55.0682C115.486 55.4328 115.403 55.7607 115.238 56.0518C115.072 56.343 114.81 56.5739 114.453 56.7443C114.095 56.9148 113.63 57 113.057 57H110.429ZM111.31 56.2188H113.057C113.632 56.2188 114.041 56.1075 114.282 55.8849C114.526 55.66 114.648 55.3878 114.648 55.0682C114.648 54.822 114.585 54.5947 114.46 54.3864C114.334 54.1757 114.156 54.0076 113.924 53.8821C113.692 53.7543 113.417 53.6903 113.1 53.6903H111.31V56.2188ZM111.31 52.9233H112.944C113.209 52.9233 113.448 52.8712 113.661 52.767C113.876 52.6629 114.047 52.5161 114.172 52.3267C114.3 52.1373 114.364 51.9148 114.364 51.6591C114.364 51.3395 114.253 51.0684 114.03 50.8459C113.808 50.621 113.455 50.5085 112.972 50.5085H111.31V52.9233ZM116.933 57V49.7273H121.322V50.5085H117.814V52.9659H121.095V53.7472H117.814V56.2188H121.379V57H116.933ZM122.91 57V49.7273H125.367C125.935 49.7273 126.402 49.8243 126.766 50.0185C127.131 50.2102 127.401 50.4742 127.576 50.8104C127.751 51.1465 127.839 51.5289 127.839 51.9574C127.839 52.3859 127.751 52.7659 127.576 53.0973C127.401 53.4287 127.132 53.6892 126.77 53.8786C126.408 54.0656 125.945 54.1591 125.381 54.1591H123.393V53.3636H125.353C125.741 53.3636 126.054 53.3068 126.29 53.1932C126.53 53.0795 126.702 52.9186 126.809 52.7102C126.918 52.4995 126.972 52.2486 126.972 51.9574C126.972 51.6662 126.918 51.4117 126.809 51.1939C126.7 50.9761 126.526 50.808 126.287 50.6896C126.048 50.5689 125.732 50.5085 125.339 50.5085H123.79V57H122.91ZM126.333 53.733L128.123 57H127.1L125.339 53.733H126.333Z" fill="white"/>
<path d="M387.789 79.5359V78.8264H387.6L387.381 79.3137L387.163 78.8264H386.973V79.5359H387.108V79.0009L387.312 79.4626H387.451L387.656 78.9997V79.5359H387.789ZM386.589 79.5359V78.9474H386.832V78.8276H386.213V78.9474H386.456V79.5359H386.589Z" fill="#F79410"/>
<path d="M366.327 82.5828H349.989V53.8792H366.327V82.5828Z" fill="#FF5F00"/>
<path d="M351.034 68.2253C351.034 62.4026 353.822 57.2159 358.165 53.8734C354.99 51.4292 350.981 49.9704 346.625 49.9704C336.313 49.9704 327.953 58.1433 327.953 68.2253C327.953 78.3073 336.313 86.4802 346.625 86.4802C350.981 86.4802 354.99 85.0214 358.165 82.5772C353.822 79.2347 351.034 74.048 351.034 68.2253Z" fill="#EB001B"/>
<path d="M388.371 68.2204C388.371 78.3025 380.011 86.4753 369.699 86.4753C365.343 86.4753 361.334 85.0165 358.157 82.5723C362.501 79.2298 365.29 74.0431 365.29 68.2204C365.29 62.3977 362.501 57.2111 358.157 53.8686C361.334 51.4244 365.343 49.9655 369.699 49.9655C380.011 49.9655 388.371 58.1384 388.371 68.2204Z" fill="#F79E1B"/>
<g filter="url(#filter1_d_2201_2806)">
<rect x="15" y="26" width="365" height="212" rx="15" fill="#3E4958"/>
</g>
<path d="M32.8011 195.364H34.5511V203.614C34.5511 204.36 34.4034 204.998 34.108 205.528C33.8163 206.059 33.4053 206.464 32.875 206.744C32.3447 207.021 31.7235 207.159 31.0114 207.159C30.3561 207.159 29.767 207.04 29.2443 206.801C28.7254 206.562 28.3144 206.216 28.0114 205.761C27.7121 205.303 27.5625 204.746 27.5625 204.091H29.3068C29.3068 204.413 29.3807 204.691 29.5284 204.926C29.6799 205.161 29.8864 205.345 30.1477 205.477C30.4129 205.606 30.7159 205.67 31.0568 205.67C31.428 205.67 31.7424 205.593 32 205.438C32.2614 205.278 32.4602 205.045 32.5966 204.739C32.733 204.432 32.8011 204.057 32.8011 203.614V195.364ZM38.0895 207H36.2259L40.4134 195.364H42.4418L46.6293 207H44.7656L41.4759 197.477H41.3849L38.0895 207ZM38.402 202.443H44.4474V203.92H38.402V202.443ZM48.3097 207V195.364H50.0653V200.92H50.2074L55.0881 195.364H57.2983L52.6051 200.602L57.3153 207H55.2017L51.4403 201.801L50.0653 203.381V207H48.3097ZM58.9347 207V195.364H66.2301V196.875H60.6903V200.42H65.8494V201.926H60.6903V205.489H66.2983V207H58.9347ZM72.2358 196.875V195.364H81.2415V196.875H77.6108V207H75.8608V196.875H72.2358ZM90.7145 195.364H92.4759V203.017C92.4759 203.831 92.2846 204.553 91.902 205.182C91.5194 205.807 90.9815 206.299 90.2884 206.659C89.5952 207.015 88.7827 207.193 87.8509 207.193C86.9228 207.193 86.1122 207.015 85.419 206.659C84.7259 206.299 84.188 205.807 83.8054 205.182C83.4228 204.553 83.2315 203.831 83.2315 203.017V195.364H84.9872V202.875C84.9872 203.402 85.1027 203.869 85.3338 204.278C85.5687 204.688 85.9001 205.009 86.3281 205.244C86.7562 205.475 87.2637 205.591 87.8509 205.591C88.4418 205.591 88.9512 205.475 89.3793 205.244C89.8111 205.009 90.1406 204.688 90.3679 204.278C90.599 203.869 90.7145 203.402 90.7145 202.875V195.364ZM104.693 199.148H102.92C102.852 198.769 102.725 198.436 102.54 198.148C102.354 197.86 102.127 197.616 101.858 197.415C101.589 197.214 101.288 197.062 100.955 196.96C100.625 196.858 100.275 196.807 99.9034 196.807C99.233 196.807 98.6326 196.975 98.1023 197.312C97.5758 197.65 97.1591 198.144 96.8523 198.795C96.5492 199.447 96.3977 200.242 96.3977 201.182C96.3977 202.129 96.5492 202.928 96.8523 203.58C97.1591 204.231 97.5777 204.723 98.108 205.057C98.6383 205.39 99.2348 205.557 99.8977 205.557C100.265 205.557 100.614 205.508 100.943 205.409C101.277 205.307 101.578 205.157 101.847 204.96C102.116 204.763 102.343 204.523 102.528 204.239C102.718 203.951 102.848 203.621 102.92 203.25L104.693 203.256C104.598 203.828 104.415 204.354 104.142 204.835C103.873 205.312 103.527 205.725 103.102 206.074C102.682 206.419 102.201 206.686 101.659 206.875C101.117 207.064 100.527 207.159 99.8864 207.159C98.8788 207.159 97.9811 206.92 97.1932 206.443C96.4053 205.962 95.7841 205.275 95.3295 204.381C94.8788 203.487 94.6534 202.42 94.6534 201.182C94.6534 199.939 94.8807 198.873 95.3352 197.983C95.7898 197.089 96.411 196.403 97.1989 195.926C97.9867 195.445 98.8826 195.205 99.8864 195.205C100.504 195.205 101.08 195.294 101.614 195.472C102.152 195.646 102.634 195.903 103.062 196.244C103.491 196.581 103.845 196.994 104.125 197.483C104.405 197.968 104.595 198.523 104.693 199.148ZM106.794 207V195.364H108.55V200.42H114.351V195.364H116.112V207H114.351V201.926H108.55V207H106.794ZM118.669 207V195.364H125.964V196.875H120.425V200.42H125.584V201.926H120.425V205.489H126.033V207H118.669ZM128.31 207V195.364H130.065V205.489H135.338V207H128.31Z" fill="white"/>
<path opacity="0.2" d="M210.871 149.781L214.289 155.23L217.707 149.781H219.904L215.412 156.822L220.012 164H217.795L214.289 158.443L210.783 164H208.566L213.166 156.822L208.674 149.781H210.871ZM223.81 149.781L227.228 155.23L230.646 149.781H232.843L228.351 156.822L232.951 164H230.734L227.228 158.443L223.722 164H221.505L226.105 156.822L221.613 149.781H223.81ZM236.749 149.781L240.167 155.23L243.585 149.781H245.782L241.29 156.822L245.89 164H243.673L240.167 158.443L236.661 164H234.445L239.044 156.822L234.552 149.781H236.749Z" fill="white"/>
<path opacity="0.6" d="M218.958 135H218.077C218.025 134.747 217.934 134.524 217.804 134.332C217.676 134.141 217.52 133.98 217.335 133.849C217.153 133.717 216.95 133.617 216.728 133.551C216.505 133.485 216.273 133.452 216.032 133.452C215.591 133.452 215.192 133.563 214.835 133.786C214.48 134.008 214.197 134.336 213.986 134.769C213.778 135.202 213.674 135.734 213.674 136.364C213.674 136.993 213.778 137.525 213.986 137.958C214.197 138.391 214.48 138.719 214.835 138.942C215.192 139.164 215.591 139.276 216.032 139.276C216.273 139.276 216.505 139.242 216.728 139.176C216.95 139.11 217.153 139.012 217.335 138.881C217.52 138.749 217.676 138.587 217.804 138.395C217.934 138.201 218.025 137.978 218.077 137.727H218.958C218.892 138.099 218.771 138.432 218.596 138.725C218.42 139.019 218.203 139.268 217.942 139.474C217.682 139.678 217.389 139.833 217.065 139.94C216.743 140.046 216.399 140.099 216.032 140.099C215.411 140.099 214.86 139.948 214.377 139.645C213.894 139.342 213.514 138.911 213.237 138.352C212.96 137.794 212.822 137.131 212.822 136.364C212.822 135.597 212.96 134.934 213.237 134.375C213.514 133.816 213.894 133.385 214.377 133.082C214.86 132.779 215.411 132.628 216.032 132.628C216.399 132.628 216.743 132.681 217.065 132.788C217.389 132.894 217.682 133.05 217.942 133.256C218.203 133.46 218.42 133.709 218.596 134.002C218.771 134.293 218.892 134.626 218.958 135ZM220.679 132.727L222.838 138.849H222.924L225.083 132.727H226.006L223.336 140H222.426L219.756 132.727H220.679ZM227.437 132.727L229.596 138.849H229.681L231.841 132.727H232.764L230.093 140H229.184L226.514 132.727H227.437Z" fill="white"/>
<path d="M37.1705 160.193C36.2727 160.189 35.5057 159.953 34.8693 159.483C34.233 159.013 33.7462 158.33 33.4091 157.432C33.072 156.534 32.9034 155.453 32.9034 154.188C32.9034 152.926 33.072 151.848 33.4091 150.955C33.75 150.061 34.2386 149.379 34.875 148.909C35.5152 148.439 36.2803 148.205 37.1705 148.205C38.0606 148.205 38.8239 148.441 39.4602 148.915C40.0966 149.384 40.5833 150.066 40.9205 150.96C41.2614 151.85 41.4318 152.926 41.4318 154.188C41.4318 155.456 41.2633 156.54 40.9261 157.438C40.589 158.331 40.1023 159.015 39.4659 159.489C38.8295 159.958 38.0644 160.193 37.1705 160.193ZM37.1705 158.676C37.9583 158.676 38.5739 158.292 39.017 157.523C39.464 156.754 39.6875 155.642 39.6875 154.188C39.6875 153.222 39.5852 152.405 39.3807 151.739C39.1799 151.068 38.8902 150.561 38.5114 150.216C38.1364 149.867 37.6894 149.693 37.1705 149.693C36.3864 149.693 35.7708 150.08 35.3239 150.852C34.8769 151.625 34.6515 152.737 34.6477 154.188C34.6477 155.157 34.7481 155.977 34.9489 156.648C35.1534 157.314 35.4432 157.82 35.8182 158.165C36.1932 158.506 36.6439 158.676 37.1705 158.676ZM47.8622 148.364V160H46.1009V150.125H46.0327L43.2486 151.943V150.261L46.152 148.364H47.8622ZM55.4645 147.818L51.7145 161.75H50.1974L53.9474 147.818H55.4645ZM56.8849 160V158.727L60.8224 154.648C61.2429 154.205 61.5895 153.816 61.8622 153.483C62.1387 153.146 62.3452 152.826 62.4815 152.523C62.6179 152.22 62.6861 151.898 62.6861 151.557C62.6861 151.17 62.5952 150.837 62.4134 150.557C62.2315 150.273 61.9834 150.055 61.669 149.903C61.3546 149.748 61.0005 149.67 60.6065 149.67C60.1899 149.67 59.8262 149.756 59.5156 149.926C59.205 150.097 58.9664 150.337 58.7997 150.648C58.633 150.958 58.5497 151.322 58.5497 151.739H56.8736C56.8736 151.03 57.0365 150.411 57.3622 149.881C57.688 149.35 58.1349 148.939 58.7031 148.648C59.2713 148.352 59.9171 148.205 60.6406 148.205C61.3717 148.205 62.0156 148.35 62.5724 148.642C63.133 148.93 63.5705 149.324 63.8849 149.824C64.1993 150.32 64.3565 150.881 64.3565 151.506C64.3565 151.938 64.2751 152.36 64.1122 152.773C63.9531 153.186 63.6747 153.646 63.277 154.153C62.8793 154.657 62.3262 155.269 61.6179 155.989L59.3054 158.409V158.494H64.544V160H56.8849ZM70.7486 160.159C69.9683 160.159 69.2713 160.025 68.6577 159.756C68.0478 159.487 67.5649 159.114 67.2088 158.636C66.8565 158.155 66.6671 157.598 66.6406 156.966H68.4247C68.4474 157.311 68.563 157.61 68.7713 157.864C68.9834 158.114 69.2599 158.307 69.6009 158.443C69.9418 158.58 70.3205 158.648 70.7372 158.648C71.1955 158.648 71.6009 158.568 71.9531 158.409C72.3092 158.25 72.5876 158.028 72.7884 157.744C72.9891 157.456 73.0895 157.125 73.0895 156.75C73.0895 156.36 72.9891 156.017 72.7884 155.722C72.5914 155.422 72.3016 155.187 71.919 155.017C71.5402 154.847 71.0819 154.761 70.544 154.761H69.5611V153.33H70.544C70.9759 153.33 71.3546 153.252 71.6804 153.097C72.0099 152.941 72.2675 152.725 72.4531 152.449C72.6387 152.169 72.7315 151.841 72.7315 151.466C72.7315 151.106 72.6501 150.794 72.4872 150.528C72.3281 150.259 72.1009 150.049 71.8054 149.898C71.5137 149.746 71.169 149.67 70.7713 149.67C70.3925 149.67 70.0384 149.741 69.7088 149.881C69.383 150.017 69.1179 150.214 68.9134 150.472C68.7088 150.725 68.599 151.03 68.5838 151.386H66.8849C66.9039 150.758 67.0895 150.205 67.4418 149.727C67.7978 149.25 68.2675 148.877 68.8509 148.608C69.4342 148.339 70.0819 148.205 70.794 148.205C71.5402 148.205 72.1842 148.35 72.7259 148.642C73.2713 148.93 73.6918 149.314 73.9872 149.795C74.2865 150.277 74.4342 150.803 74.4304 151.375C74.4342 152.027 74.2524 152.58 73.8849 153.034C73.5213 153.489 73.0365 153.794 72.4304 153.949V154.04C73.2031 154.157 73.8016 154.464 74.2259 154.96C74.6539 155.456 74.866 156.072 74.8622 156.807C74.866 157.447 74.688 158.021 74.3281 158.528C73.9721 159.036 73.4853 159.436 72.8679 159.727C72.2505 160.015 71.544 160.159 70.7486 160.159Z" fill="white"/>
<path opacity="0.6" d="M32.8807 130.727H33.9318L36.4034 136.764H36.4886L38.9602 130.727H40.0114V138H39.1875V132.474H39.1165L36.8438 138H36.0483L33.7756 132.474H33.7045V138H32.8807V130.727ZM47.9135 134.364C47.9135 135.131 47.775 135.794 47.498 136.352C47.2211 136.911 46.8411 137.342 46.3581 137.645C45.8752 137.948 45.3236 138.099 44.7033 138.099C44.083 138.099 43.5314 137.948 43.0485 137.645C42.5655 137.342 42.1855 136.911 41.9086 136.352C41.6316 135.794 41.4931 135.131 41.4931 134.364C41.4931 133.597 41.6316 132.934 41.9086 132.375C42.1855 131.816 42.5655 131.385 43.0485 131.082C43.5314 130.779 44.083 130.628 44.7033 130.628C45.3236 130.628 45.8752 130.779 46.3581 131.082C46.8411 131.385 47.2211 131.816 47.498 132.375C47.775 132.934 47.9135 133.597 47.9135 134.364ZM47.0613 134.364C47.0613 133.734 46.9559 133.202 46.7452 132.769C46.5369 132.336 46.254 132.008 45.8965 131.786C45.5414 131.563 45.1436 131.452 44.7033 131.452C44.263 131.452 43.8641 131.563 43.5066 131.786C43.1515 132.008 42.8685 132.336 42.6578 132.769C42.4495 133.202 42.3453 133.734 42.3453 134.364C42.3453 134.993 42.4495 135.525 42.6578 135.958C42.8685 136.391 43.1515 136.719 43.5066 136.942C43.8641 137.164 44.263 137.276 44.7033 137.276C45.1436 137.276 45.5414 137.164 45.8965 136.942C46.254 136.719 46.5369 136.391 46.7452 135.958C46.9559 135.525 47.0613 134.993 47.0613 134.364ZM55.1614 130.727V138H54.3091L50.3461 132.29H50.275V138H49.3944V130.727H50.2466L54.2239 136.452H54.2949V130.727H55.1614ZM56.5259 131.509V130.727H61.9805V131.509H59.6935V138H58.8129V131.509H56.5259ZM63.3397 138V130.727H64.2203V133.966H68.0982V130.727H68.9789V138H68.0982V134.747H64.2203V138H63.3397ZM73.1994 130.386L70.8556 139.094H70.0886L72.4324 130.386H73.1994ZM73.6815 130.727H74.69L76.707 134.122H76.7923L78.8093 130.727H79.8178L77.19 135.003V138H76.3093V135.003L73.6815 130.727ZM80.9569 138V130.727H85.3461V131.509H81.8375V133.966H85.1188V134.747H81.8375V137.219H85.4029V138H80.9569ZM87.2317 138H86.3084L88.9789 130.727H89.888L92.5584 138H91.6351L89.4618 131.878H89.405L87.2317 138ZM87.5726 135.159H91.2942V135.94H87.5726V135.159ZM93.6912 138V130.727H96.1486C96.7168 130.727 97.1832 130.824 97.5478 131.018C97.9123 131.21 98.1822 131.474 98.3574 131.81C98.5326 132.147 98.6202 132.529 98.6202 132.957C98.6202 133.386 98.5326 133.766 98.3574 134.097C98.1822 134.429 97.9135 134.689 97.5513 134.879C97.1891 135.066 96.7263 135.159 96.1628 135.159H94.1742V134.364H96.1344C96.5227 134.364 96.8352 134.307 97.0719 134.193C97.311 134.08 97.4838 133.919 97.5904 133.71C97.6993 133.5 97.7537 133.249 97.7537 132.957C97.7537 132.666 97.6993 132.412 97.5904 132.194C97.4815 131.976 97.3075 131.808 97.0684 131.69C96.8292 131.569 96.5132 131.509 96.1202 131.509H94.5719V138H93.6912ZM97.1145 134.733L98.9043 138H97.8816L96.1202 134.733H97.1145Z" fill="white"/>
<path d="M38.791 92.2148V93.6992H28.5176V92.6348L34.8848 82.7812H36.3594L34.7773 85.6328L30.5684 92.2148H38.791ZM36.8086 82.7812V97H35.002V82.7812H36.8086ZM42.6285 95.4863H42.8141C43.8557 95.4863 44.7021 95.3398 45.3531 95.0469C46.0042 94.7539 46.5055 94.36 46.857 93.8652C47.2086 93.3704 47.4495 92.8138 47.5797 92.1953C47.7099 91.5703 47.775 90.929 47.775 90.2715V88.0938C47.775 87.4492 47.7001 86.8763 47.5504 86.375C47.4072 85.8737 47.2053 85.4538 46.9449 85.1152C46.691 84.7767 46.4013 84.5195 46.0758 84.3438C45.7503 84.168 45.4052 84.0801 45.0406 84.0801C44.624 84.0801 44.2496 84.1647 43.9176 84.334C43.5921 84.4967 43.3154 84.7279 43.0875 85.0273C42.8661 85.3268 42.6969 85.6784 42.5797 86.082C42.4625 86.4857 42.4039 86.9251 42.4039 87.4004C42.4039 87.8236 42.456 88.2337 42.5602 88.6309C42.6643 89.028 42.8238 89.3861 43.0387 89.7051C43.2535 90.0241 43.5204 90.278 43.8395 90.4668C44.165 90.6491 44.5458 90.7402 44.982 90.7402C45.3857 90.7402 45.7633 90.6621 46.1148 90.5059C46.4729 90.3431 46.7887 90.125 47.0621 89.8516C47.3421 89.5716 47.5634 89.2559 47.7262 88.9043C47.8954 88.5527 47.9931 88.1849 48.0191 87.8008H48.8785C48.8785 88.3411 48.7711 88.875 48.5562 89.4023C48.3479 89.9232 48.0549 90.3984 47.6773 90.8281C47.2997 91.2578 46.857 91.6029 46.3492 91.8633C45.8414 92.1172 45.288 92.2441 44.6891 92.2441C43.9859 92.2441 43.3772 92.1074 42.8629 91.834C42.3486 91.5605 41.9254 91.196 41.5934 90.7402C41.2678 90.2845 41.0237 89.7767 40.8609 89.2168C40.7047 88.6504 40.6266 88.0775 40.6266 87.498C40.6266 86.821 40.721 86.1862 40.9098 85.5938C41.0986 85.0013 41.3785 84.4805 41.7496 84.0312C42.1207 83.5755 42.5797 83.2207 43.1266 82.9668C43.6799 82.7129 44.318 82.5859 45.0406 82.5859C45.8544 82.5859 46.5478 82.7487 47.1207 83.0742C47.6936 83.3997 48.1591 83.8359 48.5172 84.3828C48.8818 84.9297 49.1487 85.5449 49.318 86.2285C49.4872 86.9121 49.5719 87.6152 49.5719 88.3379V88.9922C49.5719 89.7279 49.523 90.4766 49.4254 91.2383C49.3342 91.9935 49.1552 92.7161 48.8883 93.4062C48.6279 94.0964 48.247 94.7148 47.7457 95.2617C47.2444 95.8021 46.5901 96.2318 45.7828 96.5508C44.982 96.8633 43.9924 97.0195 42.8141 97.0195H42.6285V95.4863ZM54.7668 90.2324L53.3215 89.8613L54.0344 82.7812H61.3293V84.4512H55.5676L55.1379 88.3184C55.3983 88.1686 55.7271 88.0286 56.1242 87.8984C56.5279 87.7682 56.9901 87.7031 57.5109 87.7031C58.1685 87.7031 58.7577 87.8171 59.2785 88.0449C59.7993 88.2663 60.2421 88.5853 60.6066 89.002C60.9777 89.4186 61.2609 89.9199 61.4562 90.5059C61.6516 91.0918 61.7492 91.7461 61.7492 92.4688C61.7492 93.1523 61.6548 93.7806 61.466 94.3535C61.2837 94.9264 61.007 95.4277 60.6359 95.8574C60.2648 96.2806 59.7961 96.6094 59.2297 96.8438C58.6698 97.0781 58.009 97.1953 57.2473 97.1953C56.6743 97.1953 56.1307 97.1172 55.6164 96.9609C55.1086 96.7982 54.6529 96.554 54.2492 96.2285C53.8521 95.8965 53.5266 95.4863 53.2727 94.998C53.0253 94.5033 52.869 93.9238 52.8039 93.2598H54.5227C54.6008 93.7936 54.757 94.2428 54.9914 94.6074C55.2258 94.972 55.5318 95.2487 55.9094 95.4375C56.2935 95.6198 56.7395 95.7109 57.2473 95.7109C57.677 95.7109 58.0578 95.6361 58.3898 95.4863C58.7219 95.3366 59.0018 95.1217 59.2297 94.8418C59.4576 94.5618 59.6301 94.2233 59.7473 93.8262C59.871 93.429 59.9328 92.9831 59.9328 92.4883C59.9328 92.0391 59.871 91.6224 59.7473 91.2383C59.6236 90.8542 59.438 90.5189 59.1906 90.2324C58.9497 89.946 58.6535 89.7246 58.302 89.5684C57.9504 89.4056 57.5467 89.3242 57.091 89.3242C56.4855 89.3242 56.0266 89.4056 55.7141 89.5684C55.4081 89.7311 55.0923 89.9525 54.7668 90.2324ZM73.0574 88.7578V90.9258C73.0574 92.0911 72.9533 93.0742 72.7449 93.875C72.5366 94.6758 72.2371 95.3203 71.8465 95.8086C71.4559 96.2969 70.9839 96.6517 70.4305 96.873C69.8836 97.0879 69.2651 97.1953 68.575 97.1953C68.0281 97.1953 67.5236 97.127 67.0613 96.9902C66.5991 96.8535 66.1824 96.6354 65.8113 96.3359C65.4467 96.0299 65.1342 95.6328 64.8738 95.1445C64.6134 94.6562 64.4148 94.0638 64.2781 93.3672C64.1414 92.6706 64.073 91.8568 64.073 90.9258V88.7578C64.073 87.5924 64.1772 86.6159 64.3855 85.8281C64.6004 85.0404 64.9031 84.4089 65.2938 83.9336C65.6844 83.4518 66.1531 83.1068 66.7 82.8984C67.2534 82.6901 67.8719 82.5859 68.5555 82.5859C69.1089 82.5859 69.6167 82.6543 70.0789 82.791C70.5477 82.9212 70.9643 83.1328 71.3289 83.4258C71.6935 83.7122 72.0027 84.0964 72.2566 84.5781C72.5171 85.0534 72.7156 85.6361 72.8523 86.3262C72.9891 87.0163 73.0574 87.8268 73.0574 88.7578ZM71.241 91.2188V88.4551C71.241 87.8171 71.202 87.2572 71.1238 86.7754C71.0522 86.2871 70.9448 85.8704 70.8016 85.5254C70.6583 85.1803 70.476 84.9004 70.2547 84.6855C70.0398 84.4707 69.7892 84.3145 69.5027 84.2168C69.2228 84.1126 68.907 84.0605 68.5555 84.0605C68.1258 84.0605 67.7449 84.1419 67.4129 84.3047C67.0809 84.4609 66.8009 84.7116 66.573 85.0566C66.3517 85.4017 66.1824 85.8542 66.0652 86.4141C65.948 86.974 65.8895 87.6543 65.8895 88.4551V91.2188C65.8895 91.8568 65.9253 92.4199 65.9969 92.9082C66.075 93.3965 66.1889 93.8197 66.3387 94.1777C66.4884 94.5293 66.6707 94.819 66.8855 95.0469C67.1004 95.2747 67.3478 95.444 67.6277 95.5547C67.9142 95.6589 68.2299 95.7109 68.575 95.7109C69.0177 95.7109 69.4051 95.6263 69.7371 95.457C70.0691 95.2878 70.3458 95.0241 70.5672 94.666C70.7951 94.3014 70.9643 93.8359 71.075 93.2695C71.1857 92.6966 71.241 92.013 71.241 91.2188ZM90.752 92.2148V93.6992H80.4785V92.6348L86.8457 82.7812H88.3203L86.7383 85.6328L82.5293 92.2148H90.752ZM88.7695 82.7812V97H86.9629V82.7812H88.7695ZM95.0777 90.2324L93.6324 89.8613L94.3453 82.7812H101.64V84.4512H95.8785L95.4488 88.3184C95.7092 88.1686 96.038 88.0286 96.4352 87.8984C96.8388 87.7682 97.301 87.7031 97.8219 87.7031C98.4794 87.7031 99.0686 87.8171 99.5895 88.0449C100.11 88.2663 100.553 88.5853 100.918 89.002C101.289 89.4186 101.572 89.9199 101.767 90.5059C101.963 91.0918 102.06 91.7461 102.06 92.4688C102.06 93.1523 101.966 93.7806 101.777 94.3535C101.595 94.9264 101.318 95.4277 100.947 95.8574C100.576 96.2806 100.107 96.6094 99.5406 96.8438C98.9807 97.0781 98.3199 97.1953 97.5582 97.1953C96.9853 97.1953 96.4417 97.1172 95.9273 96.9609C95.4195 96.7982 94.9638 96.554 94.5602 96.2285C94.163 95.8965 93.8375 95.4863 93.5836 94.998C93.3362 94.5033 93.1799 93.9238 93.1148 93.2598H94.8336C94.9117 93.7936 95.068 94.2428 95.3023 94.6074C95.5367 94.972 95.8427 95.2487 96.2203 95.4375C96.6044 95.6198 97.0504 95.7109 97.5582 95.7109C97.9879 95.7109 98.3688 95.6361 98.7008 95.4863C99.0328 95.3366 99.3128 95.1217 99.5406 94.8418C99.7685 94.5618 99.941 94.2233 100.058 93.8262C100.182 93.429 100.244 92.9831 100.244 92.4883C100.244 92.0391 100.182 91.6224 100.058 91.2383C99.9345 90.8542 99.749 90.5189 99.5016 90.2324C99.2607 89.946 98.9645 89.7246 98.6129 89.5684C98.2613 89.4056 97.8577 89.3242 97.402 89.3242C96.7965 89.3242 96.3375 89.4056 96.025 89.5684C95.719 89.7311 95.4033 89.9525 95.0777 90.2324Z" fill="white"/>
<path opacity="0.2" d="M135.437 82.7812L138.855 88.2305L142.273 82.7812H144.47L139.978 89.8223L144.577 97H142.36L138.855 91.4434L135.349 97H133.132L137.732 89.8223L133.239 82.7812H135.437ZM148.376 82.7812L151.794 88.2305L155.212 82.7812H157.409L152.917 89.8223L157.516 97H155.3L151.794 91.4434L148.288 97H146.071L150.671 89.8223L146.178 82.7812H148.376ZM166.676 82.7812L170.094 88.2305L173.512 82.7812H175.709L171.217 89.8223L175.816 97H173.6L170.094 91.4434L166.588 97H164.371L168.971 89.8223L164.478 82.7812H166.676ZM179.615 82.7812L183.033 88.2305L186.451 82.7812H188.648L184.156 89.8223L188.755 97H186.539L183.033 91.4434L179.527 97H177.31L181.91 89.8223L177.418 82.7812H179.615ZM192.554 82.7812L195.972 88.2305L199.39 82.7812H201.587L197.095 89.8223L201.694 97H199.478L195.972 91.4434L192.466 97H190.249L194.849 89.8223L190.357 82.7812H192.554ZM205.493 82.7812L208.911 88.2305L212.329 82.7812H214.526L210.034 89.8223L214.634 97H212.417L208.911 91.4434L205.405 97H203.188L207.788 89.8223L203.296 82.7812H205.493ZM223.793 82.7812L227.211 88.2305L230.629 82.7812H232.826L228.334 89.8223L232.934 97H230.717L227.211 91.4434L223.705 97H221.488L226.088 89.8223L221.596 82.7812H223.793ZM236.732 82.7812L240.15 88.2305L243.568 82.7812H245.765L241.273 89.8223L245.873 97H243.656L240.15 91.4434L236.644 97H234.427L239.027 89.8223L234.535 82.7812H236.732ZM249.671 82.7812L253.089 88.2305L256.507 82.7812H258.704L254.212 89.8223L258.812 97H256.595L253.089 91.4434L249.583 97H247.366L251.966 89.8223L247.474 82.7812H249.671ZM262.61 82.7812L266.028 88.2305L269.446 82.7812H271.643L267.151 89.8223L271.751 97H269.534L266.028 91.4434L262.522 97H260.305L264.905 89.8223L260.413 82.7812H262.61Z" fill="white"/>
<path opacity="0.6" d="M40.014 67H39.1333C39.0813 66.7467 38.9901 66.5241 38.8599 66.3324C38.7321 66.1406 38.5758 65.9796 38.3912 65.8494C38.2089 65.7169 38.0064 65.6174 37.7839 65.5511C37.5614 65.4848 37.3294 65.4517 37.0879 65.4517C36.6475 65.4517 36.2486 65.563 35.8912 65.7855C35.536 66.008 35.2531 66.3359 35.0424 66.7692C34.8341 67.2024 34.7299 67.7339 34.7299 68.3636C34.7299 68.9934 34.8341 69.5249 35.0424 69.9581C35.2531 70.3913 35.536 70.7192 35.8912 70.9418C36.2486 71.1643 36.6475 71.2756 37.0879 71.2756C37.3294 71.2756 37.5614 71.2424 37.7839 71.1761C38.0064 71.1098 38.2089 71.0116 38.3912 70.8814C38.5758 70.7488 38.7321 70.5866 38.8599 70.3949C38.9901 70.2008 39.0813 69.9782 39.1333 69.7273H40.014C39.9477 70.099 39.827 70.4316 39.6518 70.7251C39.4766 71.0187 39.2588 71.2685 38.9984 71.4744C38.738 71.678 38.4456 71.8331 38.1213 71.9396C37.7993 72.0462 37.4548 72.0994 37.0879 72.0994C36.4676 72.0994 35.916 71.9479 35.4331 71.6449C34.9501 71.3419 34.5701 70.911 34.2931 70.3523C34.0162 69.7936 33.8777 69.1307 33.8777 68.3636C33.8777 67.5966 34.0162 66.9337 34.2931 66.375C34.5701 65.8163 34.9501 65.3854 35.4331 65.0824C35.916 64.7794 36.4676 64.6278 37.0879 64.6278C37.4548 64.6278 37.7993 64.6811 38.1213 64.7876C38.4456 64.8942 38.738 65.0504 38.9984 65.2564C39.2588 65.46 39.4766 65.7086 39.6518 66.0021C39.827 66.2933 39.9477 66.6259 40.014 67ZM41.7354 72H40.8121L43.4826 64.7273H44.3917L47.0621 72H46.1388L43.9655 65.8778H43.9087L41.7354 72ZM42.0763 69.1591H45.7979V69.9403H42.0763V69.1591ZM48.195 72V64.7273H50.6523C51.2205 64.7273 51.6869 64.8243 52.0515 65.0185C52.4161 65.2102 52.686 65.4742 52.8611 65.8104C53.0363 66.1465 53.1239 66.5289 53.1239 66.9574C53.1239 67.3859 53.0363 67.7659 52.8611 68.0973C52.686 68.4287 52.4173 68.6892 52.055 68.8786C51.6928 69.0656 51.23 69.1591 50.6665 69.1591H48.6779V68.3636H50.6381C51.0264 68.3636 51.3389 68.3068 51.5756 68.1932C51.8147 68.0795 51.9876 67.9186 52.0941 67.7102C52.203 67.4995 52.2575 67.2486 52.2575 66.9574C52.2575 66.6662 52.203 66.4117 52.0941 66.1939C51.9852 65.9761 51.8112 65.808 51.5721 65.6896C51.333 65.5689 51.0169 65.5085 50.6239 65.5085H49.0756V72H48.195ZM51.6182 68.733L53.408 72H52.3853L50.6239 68.733H51.6182ZM56.8358 72H54.5914V64.7273H56.9352C57.6407 64.7273 58.2444 64.8729 58.7463 65.1641C59.2482 65.4529 59.6329 65.8684 59.9004 66.4105C60.1679 66.9503 60.3017 67.5966 60.3017 68.3494C60.3017 69.107 60.1667 69.7592 59.8968 70.3061C59.6269 70.8506 59.234 71.2696 58.7179 71.5632C58.2018 71.8544 57.5744 72 56.8358 72ZM55.4721 71.2188H56.7789C57.3803 71.2188 57.8786 71.1027 58.274 70.8707C58.6693 70.6387 58.9641 70.3085 59.1582 69.88C59.3523 69.4515 59.4494 68.9413 59.4494 68.3494C59.4494 67.7623 59.3535 67.2569 59.1617 66.8331C58.97 66.407 58.6835 66.0803 58.3024 65.853C57.9212 65.6233 57.4466 65.5085 56.8784 65.5085H55.4721V71.2188ZM70.3585 64.7273V72H69.5062L65.5431 66.2898H65.4721V72H64.5914V64.7273H65.4437L69.421 70.4517H69.492V64.7273H70.3585ZM76.8935 64.7273H77.7741V69.5426C77.7741 70.0398 77.657 70.4837 77.4226 70.8743C77.1906 71.2625 76.8627 71.5691 76.4389 71.794C76.0151 72.0166 75.518 72.1278 74.9474 72.1278C74.3769 72.1278 73.8797 72.0166 73.456 71.794C73.0322 71.5691 72.7031 71.2625 72.4687 70.8743C72.2367 70.4837 72.1207 70.0398 72.1207 69.5426V64.7273H73.0014V69.4716C73.0014 69.8267 73.0795 70.1428 73.2358 70.4197C73.392 70.6944 73.6146 70.911 73.9034 71.0696C74.1946 71.2259 74.5426 71.304 74.9474 71.304C75.3523 71.304 75.7003 71.2259 75.9915 71.0696C76.2827 70.911 76.5052 70.6944 76.6591 70.4197C76.8153 70.1428 76.8935 69.8267 76.8935 69.4716V64.7273ZM79.5328 64.7273H80.584L83.0556 70.7642H83.1408L85.6124 64.7273H86.6635V72H85.8397V66.4744H85.7686L83.4959 72H82.7005L80.4277 66.4744H80.3567V72H79.5328V64.7273ZM88.4293 72V64.7273H90.9719C91.4786 64.7273 91.8964 64.8149 92.2255 64.9901C92.5546 65.1629 92.7996 65.3961 92.9606 65.6896C93.1216 65.9808 93.2021 66.304 93.2021 66.6591C93.2021 66.9716 93.1464 67.2296 93.0352 67.4332C92.9262 67.6368 92.7818 67.7978 92.6019 67.9162C92.4244 68.0346 92.2314 68.1222 92.0231 68.179V68.25C92.2456 68.2642 92.4693 68.3423 92.6942 68.4844C92.9191 68.6264 93.1074 68.83 93.2589 69.0952C93.4104 69.3603 93.4861 69.6847 93.4861 70.0682C93.4861 70.4328 93.4033 70.7607 93.2376 71.0518C93.0718 71.343 92.8102 71.5739 92.4528 71.7443C92.0953 71.9148 91.6301 72 91.0572 72H88.4293ZM89.31 71.2188H91.0572C91.6325 71.2188 92.0408 71.1075 92.2823 70.8849C92.5262 70.66 92.6481 70.3878 92.6481 70.0682C92.6481 69.822 92.5853 69.5947 92.4599 69.3864C92.3344 69.1757 92.1557 69.0076 91.9236 68.8821C91.6916 68.7543 91.417 68.6903 91.0998 68.6903H89.31V71.2188ZM89.31 67.9233H90.9435C91.2087 67.9233 91.4478 67.8712 91.6609 67.767C91.8763 67.6629 92.0468 67.5161 92.1722 67.3267C92.3001 67.1373 92.364 66.9148 92.364 66.6591C92.364 66.3395 92.2527 66.0684 92.0302 65.8459C91.8076 65.621 91.4549 65.5085 90.9719 65.5085H89.31V67.9233ZM94.9332 72V64.7273H99.3224V65.5085H95.8139V67.9659H99.0952V68.7472H95.8139V71.2188H99.3793V72H94.9332ZM100.91 72V64.7273H103.367C103.935 64.7273 104.402 64.8243 104.766 65.0185C105.131 65.2102 105.401 65.4742 105.576 65.8104C105.751 66.1465 105.839 66.5289 105.839 66.9574C105.839 67.3859 105.751 67.7659 105.576 68.0973C105.401 68.4287 105.132 68.6892 104.77 68.8786C104.408 69.0656 103.945 69.1591 103.381 69.1591H101.393V68.3636H103.353C103.741 68.3636 104.054 68.3068 104.29 68.1932C104.53 68.0795 104.702 67.9186 104.809 67.7102C104.918 67.4995 104.972 67.2486 104.972 66.9574C104.972 66.6662 104.918 66.4117 104.809 66.1939C104.7 65.9761 104.526 65.808 104.287 65.6896C104.048 65.5689 103.732 65.5085 103.339 65.5085H101.79V72H100.91ZM104.333 68.733L106.123 72H105.1L103.339 68.733H104.333Z" fill="white"/>
<path d="M365.789 94.5359V93.8264H365.6L365.381 94.3137L365.163 93.8264H364.973V94.5359H365.108V94.0009L365.312 94.4626H365.451L365.656 93.9997V94.5359H365.789ZM364.589 94.5359V93.9474H364.832V93.8276H364.213V93.9474H364.456V94.5359H364.589Z" fill="#F79410"/>
<path d="M344.327 97.5828H327.989V68.8792H344.327V97.5828Z" fill="#FF5F00"/>
<path d="M329.034 83.2253C329.034 77.4026 331.822 72.2159 336.165 68.8734C332.99 66.4292 328.981 64.9704 324.625 64.9704C314.313 64.9704 305.953 73.1433 305.953 83.2253C305.953 93.3073 314.313 101.48 324.625 101.48C328.981 101.48 332.99 100.021 336.165 97.5772C331.822 94.2347 329.034 89.048 329.034 83.2253Z" fill="#EB001B"/>
<path d="M366.371 83.2204C366.371 93.3025 358.011 101.475 347.699 101.475C343.343 101.475 339.334 100.016 336.157 97.5723C340.501 94.2298 343.29 89.0431 343.29 83.2204C343.29 77.3977 340.501 72.2111 336.157 68.8686C339.334 66.4244 343.343 64.9655 347.699 64.9655C358.011 64.9655 366.371 73.1384 366.371 83.2204Z" fill="#F79E1B"/>
<defs>
<filter id="filter0_d_2201_2806" x="22" y="0" width="395" height="242" filterUnits="userSpaceOnUse" color-interpolation-filters="sRGB">
<feFlood flood-opacity="0" result="BackgroundImageFix"/>
<feColorMatrix in="SourceAlpha" type="matrix" values="0 0 0 0 0 0 0 0 0 0 0 0 0 0 0 0 0 0 127 0" result="hardAlpha"/>
<feOffset dy="4"/>
<feGaussianBlur stdDeviation="7.5"/>
<feColorMatrix type="matrix" values="0 0 0 0 0 0 0 0 0 0 0 0 0 0 0 0 0 0 0.15 0"/>
<feBlend mode="normal" in2="BackgroundImageFix" result="effect1_dropShadow_2201_2806"/>
<feBlend mode="normal" in="SourceGraphic" in2="effect1_dropShadow_2201_2806" result="shape"/>
</filter>
<filter id="filter1_d_2201_2806" x="0" y="15" width="395" height="242" filterUnits="userSpaceOnUse" color-interpolation-filters="sRGB">
<feFlood flood-opacity="0" result="BackgroundImageFix"/>
<feColorMatrix in="SourceAlpha" type="matrix" values="0 0 0 0 0 0 0 0 0 0 0 0 0 0 0 0 0 0 127 0" result="hardAlpha"/>
<feOffset dy="4"/>
<feGaussianBlur stdDeviation="7.5"/>
<feColorMatrix type="matrix" values="0 0 0 0 0 0 0 0 0 0 0 0 0 0 0 0 0 0 0.15 0"/>
<feBlend mode="normal" in2="BackgroundImageFix" result="effect1_dropShadow_2201_2806"/>
<feBlend mode="normal" in="SourceGraphic" in2="effect1_dropShadow_2201_2806" result="shape"/>
</filter>
</defs>
</svg>
