<svg width="24" height="24" viewBox="0 0 24 24" fill="none" xmlns="http://www.w3.org/2000/svg">
<path d="M12 21.1426C17.0494 21.1426 21.1428 17.0493 21.1428 11.9998C21.1428 6.95033 17.0494 2.85693 12 2.85693C6.95051 2.85693 2.85712 6.95033 2.85712 11.9998C2.85712 17.0493 6.95051 21.1426 12 21.1426Z" stroke="black" stroke-linecap="round" stroke-linejoin="round"/>
<path fill-rule="evenodd" clip-rule="evenodd" d="M11.9999 13.1426C12.5714 13.1426 13.1428 12.5712 13.1428 11.9998C13.1428 11.4284 12.5714 10.8569 11.9999 10.8569C11.4285 10.8569 10.8582 11.4284 10.8582 11.9998C10.8582 12.5712 11.4285 13.1426 11.9999 13.1426ZM7.42852 13.1426C7.99995 13.1426 8.57138 12.5712 8.57138 11.9998C8.57138 11.4284 7.99995 10.8569 7.42852 10.8569C6.85709 10.8569 6.2868 11.4284 6.2868 11.9998C6.2868 12.5712 6.85709 13.1426 7.42852 13.1426ZM16.5714 13.1426C17.1428 13.1426 17.7142 12.5712 17.7142 11.9998C17.7142 11.4284 17.1428 10.8569 16.5714 10.8569C15.9999 10.8569 15.4297 11.4284 15.4297 11.9998C15.4297 12.5712 15.9999 13.1426 16.5714 13.1426Z" fill="black"/>
</svg>
