<svg width="24" height="24" viewBox="0 0 24 24" fill="none" xmlns="http://www.w3.org/2000/svg">
<g clip-path="url(#clip0_37_1279)">
<path d="M7.38462 0.17353C6.43073 0.162738 5.48416 0.341299 4.59976 0.698872C3.71535 1.05644 2.91066 1.58592 2.23231 2.25665C1.55395 2.92737 1.0154 3.72601 0.647847 4.60632C0.280292 5.48663 0.0910339 6.43111 0.0910339 7.38507C0.0910339 8.33903 0.280292 9.28351 0.647847 10.1638C1.0154 11.0441 1.55395 11.8428 2.23231 12.5135C2.91066 13.1842 3.71535 13.7137 4.59976 14.0713C5.48416 14.4288 6.43073 14.6074 7.38462 14.5966C9.29737 14.5966 11.1318 13.8368 12.4843 12.4843C13.8368 11.1317 14.5966 9.29735 14.5966 7.38461C14.5966 5.47187 13.8368 3.63747 12.4843 2.28495C11.1318 0.932441 9.29737 0.172607 7.38462 0.172607V0.17353ZM5.07693 2.68153C5.39163 2.68092 5.70334 2.74247 5.99419 2.86265C6.28503 2.98282 6.54928 3.15926 6.77176 3.38182C6.99424 3.60439 7.17057 3.8687 7.29063 4.15959C7.41069 4.45048 7.47212 4.76222 7.47139 5.07692C7.47225 5.3916 7.41089 5.70335 7.29086 5.99424C7.17083 6.28514 6.99449 6.54944 6.77197 6.77196C6.54946 6.99447 6.28515 7.17081 5.99426 7.29085C5.70337 7.41088 5.39162 7.47223 5.07693 7.47138C4.76225 7.47223 4.4505 7.41088 4.1596 7.29085C3.86871 7.17081 3.60441 6.99447 3.38189 6.77196C3.15937 6.54944 2.98303 6.28514 2.863 5.99424C2.74297 5.70335 2.68162 5.3916 2.68247 5.07692C2.68186 4.7623 2.74338 4.45066 2.8635 4.15988C2.98362 3.86909 3.15997 3.60489 3.38244 3.38242C3.6049 3.15995 3.86911 2.9836 4.15989 2.86348C4.45068 2.74336 4.76232 2.68185 5.07693 2.68245V2.68153ZM15.3175 10.7298C15.0643 11.3219 14.7447 11.8833 14.3649 12.4034L21.5769 19.6145C21.7286 19.7682 21.8136 19.9754 21.8136 20.1914C21.8136 20.4073 21.7286 20.6146 21.5769 20.7683C21.423 20.9195 21.2158 21.0042 21 21.0042C20.7842 21.0042 20.5771 20.9195 20.4231 20.7683L13.2979 13.6145C12.398 14.4669 11.326 15.1166 10.1539 15.5197V16.7889C10.1539 17.1951 10.4963 17.5385 10.9043 17.5385H12.9231V19.5581C12.9231 19.9643 13.2655 20.3077 13.6735 20.3077H15.6923V22.3274C15.6923 22.7335 16.0357 23.0769 16.4428 23.0769H18.4902L19.0099 23.5966C19.3255 23.9114 22.488 24.0692 23.2791 23.2791C24.0702 22.4871 23.9105 19.3246 23.5957 19.0098L15.3175 10.7308V10.7298Z" fill="black" fill-opacity="0.5"/>
</g>
<defs>
<clipPath id="clip0_37_1279">
<rect width="24" height="24" fill="white"/>
</clipPath>
</defs>
</svg>
