<svg width="13" height="13" viewBox="0 0 13 13" fill="none" xmlns="http://www.w3.org/2000/svg">
<g clip-path="url(#clip0_46_1666)">
<path fill-rule="evenodd" clip-rule="evenodd" d="M3.27775 7.88873C3.17461 7.88873 3.0757 7.84775 3.00276 7.77482C2.92983 7.70189 2.88886 7.60298 2.88886 7.49984V1.27761C2.88886 1.17447 2.92983 1.07556 3.00276 1.00263C3.0757 0.929697 3.17461 0.888725 3.27775 0.888725H10.2778C10.3809 0.888725 10.4798 0.929697 10.5527 1.00263C10.6257 1.07556 10.6666 1.17447 10.6666 1.27761V7.49984C10.6666 7.60298 10.6257 7.70189 10.5527 7.77482C10.4798 7.84775 10.3809 7.88873 10.2778 7.88873H8.7222C8.61906 7.88873 8.52014 7.9297 8.44721 8.00263C8.37428 8.07556 8.33331 8.17448 8.33331 8.27761C8.33331 8.38075 8.37428 8.47967 8.44721 8.5526C8.52014 8.62553 8.61906 8.6665 8.7222 8.6665H10.2778C10.5872 8.6665 10.8839 8.54359 11.1027 8.3248C11.3215 8.106 11.4444 7.80926 11.4444 7.49984V1.27761C11.4444 0.968195 11.3215 0.671449 11.1027 0.452656C10.8839 0.233864 10.5872 0.110948 10.2778 0.110948H3.27775C2.96833 0.110948 2.67159 0.233864 2.45279 0.452656C2.234 0.671449 2.11108 0.968195 2.11108 1.27761V7.49984C2.11108 7.80926 2.234 8.106 2.45279 8.3248C2.67159 8.54359 2.96833 8.6665 3.27775 8.6665H4.83331C4.93645 8.6665 5.03536 8.62553 5.10829 8.5526C5.18122 8.47967 5.2222 8.38075 5.2222 8.27761C5.2222 8.17448 5.18122 8.07556 5.10829 8.00263C5.03536 7.9297 4.93645 7.88873 4.83331 7.88873H3.27775Z" fill="#EB001B"/>
<path fill-rule="evenodd" clip-rule="evenodd" d="M6.5024 3.33583C6.53853 3.29962 6.58144 3.27088 6.62869 3.25128C6.67593 3.23167 6.72658 3.22158 6.77774 3.22158C6.82889 3.22158 6.87954 3.23167 6.92679 3.25128C6.97403 3.27088 7.01695 3.29962 7.05307 3.33583L9.3864 5.66917C9.45943 5.74219 9.50045 5.84123 9.50045 5.9445C9.50045 6.04777 9.45943 6.14681 9.3864 6.21983C9.31338 6.29285 9.21434 6.33388 9.11107 6.33388C9.0078 6.33388 8.90876 6.29285 8.83574 6.21983L7.16663 4.54994V11.3889C7.16663 11.4921 7.12565 11.591 7.05272 11.6639C6.97979 11.7369 6.88088 11.7778 6.77774 11.7778C6.6746 11.7778 6.57568 11.7369 6.50275 11.6639C6.42982 11.591 6.38885 11.4921 6.38885 11.3889V4.54994L4.71974 6.21983C4.64671 6.29285 4.54767 6.33388 4.4444 6.33388C4.34113 6.33388 4.24209 6.29285 4.16907 6.21983C4.09605 6.14681 4.05502 6.04777 4.05502 5.9445C4.05502 5.84123 4.09605 5.74219 4.16907 5.66917L6.5024 3.33583Z" fill="#EB001B"/>
</g>
<defs>
<clipPath id="clip0_46_1666">
<rect width="12.4444" height="12.4444" fill="white" transform="matrix(1 0 0 -1 0.555542 12.5557)"/>
</clipPath>
</defs>
</svg>
