<svg width="13" height="13" viewBox="0 0 13 13" fill="none" xmlns="http://www.w3.org/2000/svg">
<g clip-path="url(#clip0_46_1406)">
<path fill-rule="evenodd" clip-rule="evenodd" d="M3.27775 4.77827C3.17461 4.77827 3.0757 4.81924 3.00276 4.89217C2.92983 4.9651 2.88886 5.06402 2.88886 5.16716V11.3894C2.88886 11.4925 2.92983 11.5914 3.00276 11.6644C3.0757 11.7373 3.17461 11.7783 3.27775 11.7783H10.2778C10.3809 11.7783 10.4798 11.7373 10.5527 11.6644C10.6257 11.5914 10.6666 11.4925 10.6666 11.3894V5.16716C10.6666 5.06402 10.6257 4.9651 10.5527 4.89217C10.4798 4.81924 10.3809 4.77827 10.2778 4.77827H8.7222C8.61906 4.77827 8.52014 4.73729 8.44721 4.66436C8.37428 4.59143 8.33331 4.49252 8.33331 4.38938C8.33331 4.28624 8.37428 4.18732 8.44721 4.11439C8.52014 4.04146 8.61906 4.00049 8.7222 4.00049H10.2778C10.5872 4.00049 10.8839 4.1234 11.1027 4.3422C11.3215 4.56099 11.4444 4.85774 11.4444 5.16716V11.3894C11.4444 11.6988 11.3215 11.9955 11.1027 12.2143C10.8839 12.4331 10.5872 12.556 10.2778 12.556H3.27775C2.96833 12.556 2.67159 12.4331 2.45279 12.2143C2.234 11.9955 2.11108 11.6988 2.11108 11.3894V5.16716C2.11108 4.85774 2.234 4.56099 2.45279 4.3422C2.67159 4.1234 2.96833 4.00049 3.27775 4.00049H4.83331C4.93645 4.00049 5.03536 4.04146 5.10829 4.11439C5.18122 4.18732 5.2222 4.28624 5.2222 4.38938C5.2222 4.49252 5.18122 4.59143 5.10829 4.66436C5.03536 4.73729 4.93645 4.77827 4.83331 4.77827H3.27775Z" fill="#34A853"/>
<path fill-rule="evenodd" clip-rule="evenodd" d="M6.5024 9.33116C6.53853 9.36738 6.58144 9.39611 6.62869 9.41571C6.67593 9.43532 6.72658 9.44541 6.77774 9.44541C6.82889 9.44541 6.87954 9.43532 6.92679 9.41571C6.97403 9.39611 7.01695 9.36738 7.05307 9.33116L9.3864 6.99783C9.45943 6.9248 9.50045 6.82576 9.50045 6.72249C9.50045 6.61922 9.45943 6.52018 9.3864 6.44716C9.31338 6.37414 9.21434 6.33311 9.11107 6.33311C9.0078 6.33311 8.90876 6.37414 8.83574 6.44716L7.16663 8.11705V1.27805C7.16663 1.17491 7.12565 1.07599 7.05272 1.00306C6.97979 0.930132 6.88088 0.88916 6.77774 0.88916C6.6746 0.88916 6.57568 0.930132 6.50275 1.00306C6.42982 1.07599 6.38885 1.17491 6.38885 1.27805V8.11705L4.71974 6.44716C4.64671 6.37414 4.54767 6.33311 4.4444 6.33311C4.34113 6.33311 4.24209 6.37414 4.16907 6.44716C4.09605 6.52018 4.05502 6.61922 4.05502 6.72249C4.05502 6.82576 4.09605 6.9248 4.16907 6.99783L6.5024 9.33116Z" fill="#34A853"/>
</g>
<defs>
<clipPath id="clip0_46_1406">
<rect width="12.4444" height="12.4444" fill="white" transform="translate(0.555542 0.111328)"/>
</clipPath>
</defs>
</svg>
