<svg width="22" height="16" viewBox="0 0 22 16" fill="none" xmlns="http://www.w3.org/2000/svg">
<g clip-path="url(#clip0_38_1383)">
<path d="M9.625 11.2917C9.625 11.6736 9.51221 11.9983 9.28662 12.2656C9.06104 12.533 8.79069 12.6667 8.47559 12.6667H3.89941C3.58431 12.6667 3.31396 12.533 3.08838 12.2656C2.86279 11.9983 2.75 11.6736 2.75 11.2917C2.75 10.9167 2.77686 10.5677 2.83057 10.2448C2.88428 9.92188 2.97201 9.60938 3.09375 9.30729C3.21549 9.00521 3.39811 8.76736 3.6416 8.59375C3.88509 8.42014 4.17513 8.33333 4.51172 8.33333C4.97005 8.77778 5.52865 9 6.1875 9C6.84635 9 7.40495 8.77778 7.86328 8.33333C8.19987 8.33333 8.48991 8.42014 8.7334 8.59375C8.97689 8.76736 9.1595 9.00521 9.28125 9.30729C9.403 9.60938 9.49072 9.92188 9.54443 10.2448C9.59814 10.5677 9.625 10.9167 9.625 11.2917ZM8.25 6.66667C8.25 7.22222 8.04948 7.69444 7.64844 8.08333C7.2474 8.47222 6.76042 8.66667 6.1875 8.66667C5.61458 8.66667 5.1276 8.47222 4.72656 8.08333C4.32552 7.69444 4.125 7.22222 4.125 6.66667C4.125 6.11111 4.32552 5.63889 4.72656 5.25C5.1276 4.86111 5.61458 4.66667 6.1875 4.66667C6.76042 4.66667 7.2474 4.86111 7.64844 5.25C8.04948 5.63889 8.25 6.11111 8.25 6.66667ZM19.25 11V11.6667C19.25 11.7639 19.2178 11.8438 19.1533 11.9062C19.0889 11.9688 19.0065 12 18.9062 12H11.3438C11.2435 12 11.1611 11.9688 11.0967 11.9062C11.0322 11.8438 11 11.7639 11 11.6667V11C11 10.9028 11.0322 10.8229 11.0967 10.7604C11.1611 10.6979 11.2435 10.6667 11.3438 10.6667H18.9062C19.0065 10.6667 19.0889 10.6979 19.1533 10.7604C19.2178 10.8229 19.25 10.9028 19.25 11ZM15.125 8.33333V9C15.125 9.09722 15.0928 9.17708 15.0283 9.23958C14.9639 9.30208 14.8815 9.33333 14.7812 9.33333H11.3438C11.2435 9.33333 11.1611 9.30208 11.0967 9.23958C11.0322 9.17708 11 9.09722 11 9V8.33333C11 8.23611 11.0322 8.15625 11.0967 8.09375C11.1611 8.03125 11.2435 8 11.3438 8H14.7812C14.8815 8 14.9639 8.03125 15.0283 8.09375C15.0928 8.15625 15.125 8.23611 15.125 8.33333ZM19.25 8.33333V9C19.25 9.09722 19.2178 9.17708 19.1533 9.23958C19.0889 9.30208 19.0065 9.33333 18.9062 9.33333H16.8438C16.7435 9.33333 16.6611 9.30208 16.5967 9.23958C16.5322 9.17708 16.5 9.09722 16.5 9V8.33333C16.5 8.23611 16.5322 8.15625 16.5967 8.09375C16.6611 8.03125 16.7435 8 16.8438 8H18.9062C19.0065 8 19.0889 8.03125 19.1533 8.09375C19.2178 8.15625 19.25 8.23611 19.25 8.33333ZM19.25 5.66667V6.33333C19.25 6.43056 19.2178 6.51042 19.1533 6.57292C19.0889 6.63542 19.0065 6.66667 18.9062 6.66667H11.3438C11.2435 6.66667 11.1611 6.63542 11.0967 6.57292C11.0322 6.51042 11 6.43056 11 6.33333V5.66667C11 5.56944 11.0322 5.48958 11.0967 5.42708C11.1611 5.36458 11.2435 5.33333 11.3438 5.33333H18.9062C19.0065 5.33333 19.0889 5.36458 19.1533 5.42708C19.2178 5.48958 19.25 5.56944 19.25 5.66667ZM20.625 14.3333V2.66667H1.375V14.3333C1.375 14.4236 1.40902 14.5017 1.47705 14.5677C1.54508 14.6337 1.62565 14.6667 1.71875 14.6667H20.2812C20.3743 14.6667 20.4549 14.6337 20.5229 14.5677C20.591 14.5017 20.625 14.4236 20.625 14.3333ZM22 1.66667V14.3333C22 14.7917 21.8317 15.184 21.4951 15.5104C21.1585 15.8368 20.7539 16 20.2812 16H1.71875C1.24609 16 0.841471 15.8368 0.504883 15.5104C0.168294 15.184 0 14.7917 0 14.3333V1.66667C0 1.20833 0.168294 0.815972 0.504883 0.489583C0.841471 0.163194 1.24609 0 1.71875 0H20.2812C20.7539 0 21.1585 0.163194 21.4951 0.489583C21.8317 0.815972 22 1.20833 22 1.66667Z" fill="black" fill-opacity="0.5"/>
</g>
<defs>
<clipPath id="clip0_38_1383">
<rect width="22" height="16" fill="white"/>
</clipPath>
</defs>
</svg>
