<svg width="28" height="28" viewBox="0 0 28 28" fill="none" xmlns="http://www.w3.org/2000/svg">
<path d="M22.1527 2.34729L25.6527 5.84729L22.9845 8.51662L19.4845 5.01662L22.1527 2.34729ZM9.33333 18.6666H12.8333L21.3348 10.1651L17.8348 6.66512L9.33333 15.1666V18.6666Z" fill="#F7C300"/>
<path d="M22.1667 22.1667H9.51767C9.48733 22.1667 9.45583 22.1783 9.4255 22.1783C9.387 22.1783 9.3485 22.1678 9.30883 22.1667H5.83333V5.83333H13.8215L16.1548 3.5H5.83333C4.5465 3.5 3.5 4.54533 3.5 5.83333V22.1667C3.5 23.4547 4.5465 24.5 5.83333 24.5H22.1667C22.7855 24.5 23.379 24.2542 23.8166 23.8166C24.2542 23.379 24.5 22.7855 24.5 22.1667V12.054L22.1667 14.3873V22.1667Z" fill="#F7C300"/>
</svg>
