<svg width="46" height="46" viewBox="0 0 46 46" fill="none" xmlns="http://www.w3.org/2000/svg">
<circle cx="23" cy="23" r="23" fill="#F7C300" fill-opacity="0.34"/>
<circle cx="22.7088" cy="23.2912" r="15.7215" fill="#F7C300"/>
<circle cx="22.7088" cy="23.2912" r="15.7215" fill="#F7C300"/>
<circle cx="22.7088" cy="23.2912" r="15.7215" fill="#F7C300"/>
<path d="M22.7088 15.1394C21.0107 15.1414 19.3827 15.8169 18.1819 17.0176C16.9812 18.2184 16.3057 19.8464 16.3037 21.5445C16.3017 22.9322 16.755 24.2822 17.594 25.3875C17.594 25.3875 17.7687 25.6175 17.7973 25.6507L22.7088 31.4432L27.6226 25.6478C27.6482 25.6169 27.8235 25.3875 27.8235 25.3875L27.8241 25.3858C28.6628 24.2809 29.1158 22.9315 29.1138 21.5445C29.1118 19.8464 28.4364 18.2184 27.2356 17.0176C26.0349 15.8169 24.4069 15.1414 22.7088 15.1394ZM22.7088 23.8736C22.2481 23.8736 21.7978 23.737 21.4148 23.4811C21.0318 23.2251 20.7332 22.8614 20.557 22.4358C20.3807 22.0102 20.3346 21.5419 20.4244 21.0901C20.5143 20.6383 20.7361 20.2233 21.0618 19.8975C21.3876 19.5718 21.8026 19.35 22.2544 19.2601C22.7062 19.1702 23.1745 19.2164 23.6001 19.3926C24.0257 19.5689 24.3894 19.8675 24.6454 20.2505C24.9013 20.6335 25.0379 21.0838 25.0379 21.5445C25.0371 22.162 24.7915 22.7539 24.3549 23.1905C23.9182 23.6272 23.3263 23.8728 22.7088 23.8736Z" fill="black"/>
</svg>
