<svg width="24" height="24" viewBox="0 0 24 24" fill="none" xmlns="http://www.w3.org/2000/svg">
<path d="M15.5 11.4997C15.5 13.4997 13 14.9997 13 16.4997H11C11 14.9997 8.50001 13.4997 8.50001 11.4997C8.50001 9.56969 10.07 7.99969 12 7.99969C13.93 7.99969 15.5 9.56969 15.5 11.4997ZM13 17.4997H11V18.9997H13V17.4997ZM22 11.9997C22 9.23969 20.88 6.73969 19.07 4.92969L18.01 5.98969C18.8002 6.77828 19.4269 7.71511 19.8542 8.74645C20.2815 9.77779 20.5009 10.8833 20.5 11.9997C20.5 14.3397 19.55 16.4697 18.01 18.0097L19.07 19.0697C20 18.1423 20.7376 17.0404 21.2405 15.8271C21.7433 14.6138 22.0014 13.3131 22 11.9997ZM3.50001 11.9997C3.50001 9.65969 4.45001 7.52969 5.99001 5.98969L4.93001 4.92969C3.99998 5.85704 3.26236 6.95902 2.75954 8.17232C2.25672 9.38562 1.99859 10.6863 2.00001 11.9997C2.00001 14.7597 3.12001 17.2597 4.93001 19.0697L5.99001 18.0097C5.19984 17.2211 4.57314 16.2843 4.14585 15.2529C3.71855 14.2216 3.49908 13.116 3.50001 11.9997ZM17.5 11.9997C17.5 13.5197 16.88 14.8897 15.89 15.8897L16.95 16.9497C17.6011 16.3004 18.1173 15.5288 18.4692 14.6793C18.821 13.8298 19.0014 12.9192 19 11.9997C19 10.0697 18.22 8.31969 16.95 7.04969L15.89 8.10969C16.88 9.10969 17.5 10.4797 17.5 11.9997ZM7.05001 16.9497L8.11001 15.8897C7.11001 14.8897 6.50001 13.5197 6.50001 11.9997C6.50001 10.4797 7.12001 9.10969 8.11001 8.10969L7.05001 7.04969C6.39895 7.69896 5.88266 8.47053 5.53085 9.32004C5.17904 10.1695 4.99863 11.0802 5.00001 11.9997C5.00001 13.9297 5.78001 15.6797 7.05001 16.9497Z" fill="#34A853"/>
</svg>
