<svg width="33" height="38" viewBox="0 0 33 38" fill="none" xmlns="http://www.w3.org/2000/svg">
<path d="M14.5783 32.3678L14.4586 32.169L14.2296 32.1321C10.5907 31.545 7.27458 29.6515 4.87901 26.7897C2.48325 23.9276 1.16604 20.2853 1.16663 16.5181V16.518C1.16663 12.323 2.79983 8.30174 5.7038 5.33843C8.60742 2.37546 12.5434 0.712769 16.6453 0.712769C20.7472 0.712769 24.6832 2.37546 27.5868 5.33843C30.4908 8.30174 32.124 12.323 32.124 16.518C32.1236 20.2042 30.8619 23.7733 28.5586 26.6092C26.2555 29.4449 23.056 31.3691 19.5138 32.0523L19.2948 32.0945L19.1799 32.2856L16.8563 36.1507L14.5783 32.3678Z" stroke="white"/>
<path d="M13.3537 24.1054V18.0924C13.0599 18.0489 12.7873 18.0272 12.5228 17.9674C11.6774 17.7794 10.9207 17.3014 10.3788 16.613C9.83703 15.9246 9.54286 15.0675 9.54543 14.1845C9.54099 12.9644 9.54543 11.7442 9.54543 10.524V10.3265H11.4504V10.5874C11.4504 11.7469 11.4504 12.9064 11.4504 14.0659C11.4328 14.3417 11.4731 14.6182 11.5686 14.8769C11.664 15.1356 11.8126 15.3705 12.0042 15.5659C12.1958 15.7613 12.426 15.9128 12.6796 16.0101C12.9331 16.1074 13.2041 16.1484 13.4744 16.1303C14.2367 16.1303 14.999 16.1303 15.7612 16.1303C16.8406 16.1303 17.9203 16.1303 19.0004 16.1303C19.9119 16.1117 20.7992 16.4306 21.4981 17.0279C22.1971 17.6252 22.6604 18.4606 22.8025 19.3796C22.8383 19.5889 22.8561 19.8011 22.8557 20.0137C22.8601 21.2411 22.8557 22.4694 22.8557 23.6968C22.8557 23.7484 22.8495 23.8001 22.8442 23.8671H20.9498V23.6198C20.9498 22.4069 20.9578 21.1949 20.9498 19.9829C20.9467 19.4998 20.7659 19.0356 20.4431 18.6822C20.1203 18.3288 19.6792 18.1122 19.2072 18.0751C19.1646 18.0751 19.1185 18.0751 19.0448 18.0751V24.1063L13.3537 24.1054ZM16.0577 14.1827C15.4112 14.1467 14.7957 13.8887 14.3111 13.4506C13.8265 13.0125 13.5013 12.4201 13.3883 11.7695C13.2624 11.014 13.4327 10.2383 13.8626 9.60982C14.2924 8.98136 14.9473 8.55062 15.6857 8.41067C15.7345 8.39839 15.7825 8.38299 15.8295 8.3645H16.5397C16.8612 8.44859 17.1765 8.55575 17.4833 8.68517C18.0664 8.9815 18.5313 9.47414 18.7995 10.0799C19.0676 10.6856 19.1226 11.3673 18.9551 12.0096C18.7954 12.6364 18.4351 13.1907 17.9314 13.5846C17.4276 13.9785 16.8094 14.1893 16.1748 14.1837L16.0577 14.1827Z" fill="white"/>
</svg>
