<svg width="21" height="22" viewBox="0 0 21 22" fill="none" xmlns="http://www.w3.org/2000/svg">
<path d="M3.45917 3.71028C4.39938 2.73833 5.52924 1.96954 6.77881 1.45149C8.02838 0.933438 9.37106 0.677153 10.7238 0.698497C12.0765 0.677153 13.4191 0.933438 14.6687 1.45149C15.9183 1.96954 17.0481 2.73833 17.9883 3.71028C18.9581 4.65021 19.7251 5.77842 20.2423 7.02552C20.7595 8.27263 21.0159 9.61226 20.9958 10.962C21.0159 12.3118 20.7595 13.6515 20.2423 14.8986C19.7251 16.1457 18.9581 17.2739 17.9883 18.2138C17.0481 19.1858 15.9183 19.9545 14.6687 20.4726C13.4191 20.9907 12.0765 21.2469 10.7238 21.2256C9.37106 21.2469 8.02838 20.9907 6.77881 20.4726C5.52924 19.9545 4.39938 19.1858 3.45917 18.2138C2.48943 17.2739 1.72238 16.1457 1.20519 14.8986C0.687999 13.6515 0.431598 12.3118 0.451756 10.962C0.431598 9.61226 0.687999 8.27263 1.20519 7.02552C1.72238 5.77842 2.48943 4.65021 3.45917 3.71028ZM15.0779 17.1316L13.9195 12.1663L17.7201 8.84205L12.6686 8.4087L10.6998 3.78212L8.72756 8.45774L3.67488 8.84205L7.52802 12.1663L6.36957 17.1316L10.6998 14.5281L15.0779 17.1316Z" fill="#FDCD03"/>
</svg>
