<svg width="26" height="27" viewBox="0 0 26 27" fill="none" xmlns="http://www.w3.org/2000/svg">
<path fill-rule="evenodd" clip-rule="evenodd" d="M13 1.10632C6.41879 1.10632 1.08337 6.55526 1.08337 13.2765C1.08337 19.9978 6.41879 25.4467 13 25.4467C19.5813 25.4467 24.9167 19.9978 24.9167 13.2765C24.9167 6.55526 19.5813 1.10632 13 1.10632ZM3.25004 13.2765C3.25004 11.9689 3.50223 10.6741 3.99221 9.46599C4.4822 8.25789 5.20038 7.16019 6.10575 6.23556C7.01112 5.31092 8.08595 4.57746 9.26888 4.07705C10.4518 3.57665 11.7197 3.31909 13 3.31909C14.2804 3.31909 15.5483 3.57665 16.7312 4.07705C17.9141 4.57746 18.989 5.31092 19.8943 6.23556C20.7997 7.16019 21.5179 8.25789 22.0079 9.46599C22.4978 10.6741 22.75 11.9689 22.75 13.2765C22.75 15.9174 21.7228 18.4501 19.8943 20.3175C18.0658 22.1849 15.5859 23.234 13 23.234C10.4142 23.234 7.93423 22.1849 6.10575 20.3175C4.27727 18.4501 3.25004 15.9174 3.25004 13.2765ZM14.0834 7.74462C14.0834 7.45119 13.9692 7.16978 13.7661 6.96229C13.5629 6.7548 13.2874 6.63824 13 6.63824C12.7127 6.63824 12.4372 6.7548 12.234 6.96229C12.0308 7.16978 11.9167 7.45119 11.9167 7.74462V13.2765C11.9167 13.4483 11.9559 13.6177 12.0311 13.7713C12.1063 13.925 12.2155 14.0586 12.35 14.1616L16.6834 17.4808C16.9132 17.6569 17.2022 17.7324 17.4866 17.6909C17.771 17.6495 18.0276 17.4943 18.2 17.2595C18.3724 17.0248 18.4465 16.7297 18.4058 16.4392C18.3652 16.1487 18.2132 15.8866 17.9834 15.7106L14.0834 12.7233V7.74462Z" fill="white"/>
</svg>
